<svg width="129" height="43" viewBox="0 0 129 43" fill="none" xmlns="http://www.w3.org/2000/svg">
<g filter="url(#filter0_d_1_795)">
<path d="M7.875 12V30H4.48828V12H7.875ZM17.5078 27.1406V21.4922C17.5078 21.0859 17.4414 20.7383 17.3086 20.4492C17.1758 20.1523 16.9688 19.9219 16.6875 19.7578C16.4141 19.5938 16.0586 19.5117 15.6211 19.5117C15.2461 19.5117 14.9219 19.5781 14.6484 19.7109C14.375 19.8359 14.1641 20.0195 14.0156 20.2617C13.8672 20.4961 13.793 20.7734 13.793 21.0938H10.418C10.418 20.5547 10.543 20.043 10.793 19.5586C11.043 19.0742 11.4062 18.6484 11.8828 18.2812C12.3594 17.9062 12.9258 17.6133 13.582 17.4023C14.2461 17.1914 14.9883 17.0859 15.8086 17.0859C16.793 17.0859 17.668 17.25 18.4336 17.5781C19.1992 17.9062 19.8008 18.3984 20.2383 19.0547C20.6836 19.7109 20.9062 20.5312 20.9062 21.5156V26.9414C20.9062 27.6367 20.9492 28.207 21.0352 28.6523C21.1211 29.0898 21.2461 29.4727 21.4102 29.8008V30H18C17.8359 29.6562 17.7109 29.2266 17.625 28.7109C17.5469 28.1875 17.5078 27.6641 17.5078 27.1406ZM17.9531 22.2773L17.9766 24.1875H16.0898C15.6445 24.1875 15.2578 24.2383 14.9297 24.3398C14.6016 24.4414 14.332 24.5859 14.1211 24.7734C13.9102 24.9531 13.7539 25.1641 13.6523 25.4062C13.5586 25.6484 13.5117 25.9141 13.5117 26.2031C13.5117 26.4922 13.5781 26.7539 13.7109 26.9883C13.8438 27.2148 14.0352 27.3945 14.2852 27.5273C14.5352 27.6523 14.8281 27.7148 15.1641 27.7148C15.6719 27.7148 16.1133 27.6133 16.4883 27.4102C16.8633 27.207 17.1523 26.957 17.3555 26.6602C17.5664 26.3633 17.6758 26.082 17.6836 25.8164L18.5742 27.2461C18.4492 27.5664 18.2773 27.8984 18.0586 28.2422C17.8477 28.5859 17.5781 28.9102 17.25 29.2148C16.9219 29.5117 16.5273 29.7578 16.0664 29.9531C15.6055 30.1406 15.0586 30.2344 14.4258 30.2344C13.6211 30.2344 12.8906 30.0742 12.2344 29.7539C11.5859 29.4258 11.0703 28.9766 10.6875 28.4062C10.3125 27.8281 10.125 27.1719 10.125 26.4375C10.125 25.7734 10.25 25.1836 10.5 24.668C10.75 24.1523 11.1172 23.7188 11.6016 23.3672C12.0938 23.0078 12.707 22.7383 13.4414 22.5586C14.1758 22.3711 15.0273 22.2773 15.9961 22.2773H17.9531ZM26.8828 20.0859V30H23.5078V17.3203H26.6836L26.8828 20.0859ZM30.7031 17.2383L30.6445 20.3672C30.4805 20.3438 30.2812 20.3242 30.0469 20.3086C29.8203 20.2852 29.6133 20.2734 29.4258 20.2734C28.9492 20.2734 28.5352 20.3359 28.1836 20.4609C27.8398 20.5781 27.5508 20.7539 27.3164 20.9883C27.0898 21.2227 26.918 21.5078 26.8008 21.8438C26.6914 22.1797 26.6289 22.5625 26.6133 22.9922L25.9336 22.7812C25.9336 21.9609 26.0156 21.207 26.1797 20.5195C26.3438 19.8242 26.582 19.2188 26.8945 18.7031C27.2148 18.1875 27.6055 17.7891 28.0664 17.5078C28.5273 17.2266 29.0547 17.0859 29.6484 17.0859C29.8359 17.0859 30.0273 17.1016 30.2227 17.1328C30.418 17.1562 30.5781 17.1914 30.7031 17.2383ZM40.0898 17.3203H43.1484V29.5781C43.1484 30.7344 42.8906 31.7148 42.375 32.5195C41.8672 33.332 41.1562 33.9453 40.2422 34.3594C39.3281 34.7812 38.2656 34.9922 37.0547 34.9922C36.5234 34.9922 35.9609 34.9219 35.3672 34.7812C34.7812 34.6406 34.2188 34.4219 33.6797 34.125C33.1484 33.8281 32.7031 33.4531 32.3438 33L33.832 31.0078C34.2227 31.4609 34.6758 31.8125 35.1914 32.0625C35.707 32.3203 36.2773 32.4492 36.9023 32.4492C37.5117 32.4492 38.0273 32.3359 38.4492 32.1094C38.8711 31.8906 39.1953 31.5664 39.4219 31.1367C39.6484 30.7148 39.7617 30.2031 39.7617 29.6016V20.25L40.0898 17.3203ZM31.5586 23.8125V23.5664C31.5586 22.5977 31.6758 21.7188 31.9102 20.9297C32.1523 20.1328 32.4922 19.4492 32.9297 18.8789C33.375 18.3086 33.9141 17.8672 34.5469 17.5547C35.1797 17.2422 35.8945 17.0859 36.6914 17.0859C37.5352 17.0859 38.2422 17.2422 38.8125 17.5547C39.3828 17.8672 39.8516 18.3125 40.2188 18.8906C40.5859 19.4609 40.8711 20.1367 41.0742 20.918C41.2852 21.6914 41.4492 22.5391 41.5664 23.4609V24C41.4492 24.8828 41.2734 25.7031 41.0391 26.4609C40.8047 27.2188 40.4961 27.8828 40.1133 28.4531C39.7305 29.0156 39.2539 29.4531 38.6836 29.7656C38.1211 30.0781 37.4492 30.2344 36.668 30.2344C35.8867 30.2344 35.1797 30.0742 34.5469 29.7539C33.9219 29.4336 33.3867 28.9844 32.9414 28.4062C32.4961 27.8281 32.1523 27.1484 31.9102 26.3672C31.6758 25.5859 31.5586 24.7344 31.5586 23.8125ZM34.9336 23.5664V23.8125C34.9336 24.3359 34.9844 24.8242 35.0859 25.2773C35.1875 25.7305 35.3438 26.1328 35.5547 26.4844C35.7734 26.8281 36.043 27.0977 36.3633 27.293C36.6914 27.4805 37.0781 27.5742 37.5234 27.5742C38.1406 27.5742 38.6445 27.4453 39.0352 27.1875C39.4258 26.9219 39.7188 26.5586 39.9141 26.0977C40.1094 25.6367 40.2227 25.1055 40.2539 24.5039V22.9688C40.2383 22.4766 40.1719 22.0352 40.0547 21.6445C39.9375 21.2461 39.7734 20.9062 39.5625 20.625C39.3516 20.3438 39.0781 20.125 38.7422 19.9688C38.4062 19.8125 38.0078 19.7344 37.5469 19.7344C37.1016 19.7344 36.7148 19.8359 36.3867 20.0391C36.0664 20.2344 35.7969 20.5039 35.5781 20.8477C35.3672 21.1914 35.207 21.5977 35.0977 22.0664C34.9883 22.5273 34.9336 23.0273 34.9336 23.5664ZM51.6094 30.2344C50.625 30.2344 49.7422 30.0781 48.9609 29.7656C48.1797 29.4453 47.5156 29.0039 46.9688 28.4414C46.4297 27.8789 46.0156 27.2266 45.7266 26.4844C45.4375 25.7344 45.293 24.9375 45.293 24.0938V23.625C45.293 22.6641 45.4297 21.7852 45.7031 20.9883C45.9766 20.1914 46.3672 19.5 46.875 18.9141C47.3906 18.3281 48.0156 17.8789 48.75 17.5664C49.4844 17.2461 50.3125 17.0859 51.2344 17.0859C52.1328 17.0859 52.9297 17.2344 53.625 17.5312C54.3203 17.8281 54.9023 18.25 55.3711 18.7969C55.8477 19.3438 56.207 20 56.4492 20.7656C56.6914 21.5234 56.8125 22.3672 56.8125 23.2969V24.7031H46.7344V22.4531H53.4961V22.1953C53.4961 21.7266 53.4102 21.3086 53.2383 20.9414C53.0742 20.5664 52.8242 20.2695 52.4883 20.0508C52.1523 19.832 51.7227 19.7227 51.1992 19.7227C50.7539 19.7227 50.3711 19.8203 50.0508 20.0156C49.7305 20.2109 49.4688 20.4844 49.2656 20.8359C49.0703 21.1875 48.9219 21.6016 48.8203 22.0781C48.7266 22.5469 48.6797 23.0625 48.6797 23.625V24.0938C48.6797 24.6016 48.75 25.0703 48.8906 25.5C49.0391 25.9297 49.2461 26.3008 49.5117 26.6133C49.7852 26.9258 50.1133 27.168 50.4961 27.3398C50.8867 27.5117 51.3281 27.5977 51.8203 27.5977C52.4297 27.5977 52.9961 27.4805 53.5195 27.2461C54.0508 27.0039 54.5078 26.6406 54.8906 26.1562L56.5312 27.9375C56.2656 28.3203 55.9023 28.6875 55.4414 29.0391C54.9883 29.3906 54.4414 29.6797 53.8008 29.9062C53.1602 30.125 52.4297 30.2344 51.6094 30.2344ZM62.1094 20.0859V30H58.7344V17.3203H61.9102L62.1094 20.0859ZM65.9297 17.2383L65.8711 20.3672C65.707 20.3438 65.5078 20.3242 65.2734 20.3086C65.0469 20.2852 64.8398 20.2734 64.6523 20.2734C64.1758 20.2734 63.7617 20.3359 63.4102 20.4609C63.0664 20.5781 62.7773 20.7539 62.543 20.9883C62.3164 21.2227 62.1445 21.5078 62.0273 21.8438C61.918 22.1797 61.8555 22.5625 61.8398 22.9922L61.1602 22.7812C61.1602 21.9609 61.2422 21.207 61.4062 20.5195C61.5703 19.8242 61.8086 19.2188 62.1211 18.7031C62.4414 18.1875 62.832 17.7891 63.293 17.5078C63.7539 17.2266 64.2812 17.0859 64.875 17.0859C65.0625 17.0859 65.2539 17.1016 65.4492 17.1328C65.6445 17.1562 65.8047 17.1914 65.9297 17.2383ZM74.3203 17.3203V19.7109H66.9375V17.3203H74.3203ZM68.7656 14.1914H72.1406V26.1797C72.1406 26.5469 72.1875 26.8281 72.2812 27.0234C72.3828 27.2188 72.5312 27.3555 72.7266 27.4336C72.9219 27.5039 73.168 27.5391 73.4648 27.5391C73.6758 27.5391 73.8633 27.5312 74.0273 27.5156C74.1992 27.4922 74.3438 27.4688 74.4609 27.4453L74.4727 29.9297C74.1836 30.0234 73.8711 30.0977 73.5352 30.1523C73.1992 30.207 72.8281 30.2344 72.4219 30.2344C71.6797 30.2344 71.0312 30.1133 70.4766 29.8711C69.9297 29.6211 69.5078 29.2227 69.2109 28.6758C68.9141 28.1289 68.7656 27.4102 68.7656 26.5195V14.1914ZM79.5352 12V30H76.1602V12H79.5352ZM79.0547 23.2148H78.1289C78.1367 22.332 78.2539 21.5195 78.4805 20.7773C78.707 20.0273 79.0312 19.3789 79.4531 18.832C79.875 18.2773 80.3789 17.8477 80.9648 17.543C81.5586 17.2383 82.2148 17.0859 82.9336 17.0859C83.5586 17.0859 84.125 17.1758 84.6328 17.3555C85.1484 17.5273 85.5898 17.8086 85.957 18.1992C86.332 18.582 86.6211 19.0859 86.8242 19.7109C87.0273 20.3359 87.1289 21.0938 87.1289 21.9844V30H83.7305V21.9609C83.7305 21.3984 83.6484 20.957 83.4844 20.6367C83.3281 20.3086 83.0977 20.0781 82.793 19.9453C82.4961 19.8047 82.1289 19.7344 81.6914 19.7344C81.207 19.7344 80.793 19.8242 80.4492 20.0039C80.1133 20.1836 79.8438 20.4336 79.6406 20.7539C79.4375 21.0664 79.2891 21.4336 79.1953 21.8555C79.1016 22.2773 79.0547 22.7305 79.0547 23.2148ZM96.5391 27.1406V21.4922C96.5391 21.0859 96.4727 20.7383 96.3398 20.4492C96.207 20.1523 96 19.9219 95.7188 19.7578C95.4453 19.5938 95.0898 19.5117 94.6523 19.5117C94.2773 19.5117 93.9531 19.5781 93.6797 19.7109C93.4062 19.8359 93.1953 20.0195 93.0469 20.2617C92.8984 20.4961 92.8242 20.7734 92.8242 21.0938H89.4492C89.4492 20.5547 89.5742 20.043 89.8242 19.5586C90.0742 19.0742 90.4375 18.6484 90.9141 18.2812C91.3906 17.9062 91.957 17.6133 92.6133 17.4023C93.2773 17.1914 94.0195 17.0859 94.8398 17.0859C95.8242 17.0859 96.6992 17.25 97.4648 17.5781C98.2305 17.9062 98.832 18.3984 99.2695 19.0547C99.7148 19.7109 99.9375 20.5312 99.9375 21.5156V26.9414C99.9375 27.6367 99.9805 28.207 100.066 28.6523C100.152 29.0898 100.277 29.4727 100.441 29.8008V30H97.0312C96.8672 29.6562 96.7422 29.2266 96.6562 28.7109C96.5781 28.1875 96.5391 27.6641 96.5391 27.1406ZM96.9844 22.2773L97.0078 24.1875H95.1211C94.6758 24.1875 94.2891 24.2383 93.9609 24.3398C93.6328 24.4414 93.3633 24.5859 93.1523 24.7734C92.9414 24.9531 92.7852 25.1641 92.6836 25.4062C92.5898 25.6484 92.543 25.9141 92.543 26.2031C92.543 26.4922 92.6094 26.7539 92.7422 26.9883C92.875 27.2148 93.0664 27.3945 93.3164 27.5273C93.5664 27.6523 93.8594 27.7148 94.1953 27.7148C94.7031 27.7148 95.1445 27.6133 95.5195 27.4102C95.8945 27.207 96.1836 26.957 96.3867 26.6602C96.5977 26.3633 96.707 26.082 96.7148 25.8164L97.6055 27.2461C97.4805 27.5664 97.3086 27.8984 97.0898 28.2422C96.8789 28.5859 96.6094 28.9102 96.2812 29.2148C95.9531 29.5117 95.5586 29.7578 95.0977 29.9531C94.6367 30.1406 94.0898 30.2344 93.457 30.2344C92.6523 30.2344 91.9219 30.0742 91.2656 29.7539C90.6172 29.4258 90.1016 28.9766 89.7188 28.4062C89.3438 27.8281 89.1562 27.1719 89.1562 26.4375C89.1562 25.7734 89.2812 25.1836 89.5312 24.668C89.7812 24.1523 90.1484 23.7188 90.6328 23.3672C91.125 23.0078 91.7383 22.7383 92.4727 22.5586C93.207 22.3711 94.0586 22.2773 95.0273 22.2773H96.9844ZM105.844 20.0273V30H102.469V17.3203H105.633L105.844 20.0273ZM105.352 23.2148H104.438C104.438 22.2773 104.559 21.4336 104.801 20.6836C105.043 19.9258 105.383 19.2812 105.82 18.75C106.258 18.2109 106.777 17.8008 107.379 17.5195C107.988 17.2305 108.668 17.0859 109.418 17.0859C110.012 17.0859 110.555 17.1719 111.047 17.3438C111.539 17.5156 111.961 17.7891 112.312 18.1641C112.672 18.5391 112.945 19.0352 113.133 19.6523C113.328 20.2695 113.426 21.0234 113.426 21.9141V30H110.027V21.9023C110.027 21.3398 109.949 20.9023 109.793 20.5898C109.637 20.2773 109.406 20.0586 109.102 19.9336C108.805 19.8008 108.438 19.7344 108 19.7344C107.547 19.7344 107.152 19.8242 106.816 20.0039C106.488 20.1836 106.215 20.4336 105.996 20.7539C105.785 21.0664 105.625 21.4336 105.516 21.8555C105.406 22.2773 105.352 22.7305 105.352 23.2148Z" fill="white"/>
<path d="M124.348 15.5093C124.169 15.6965 123.966 15.8511 123.738 15.9731C123.51 16.0871 123.27 16.1603 123.018 16.1929C122.765 16.2173 122.525 16.1766 122.297 16.0708C122.078 15.965 121.886 15.8145 121.724 15.6191C121.374 15.2122 121.199 14.8013 121.199 14.3862C121.199 13.9712 121.264 13.6619 121.394 13.4585C121.532 13.2469 121.703 13.076 121.907 12.9458C122.297 12.6935 122.664 12.5674 123.005 12.5674C123.355 12.5674 123.624 12.5918 123.811 12.6406C124.006 12.6895 124.185 12.7708 124.348 12.8848C124.747 13.1533 124.946 13.4829 124.946 13.8735C124.946 14.256 124.889 14.5775 124.775 14.8379C124.67 15.0902 124.527 15.314 124.348 15.5093ZM121.846 28.7173C122.057 28.7173 122.163 28.8556 122.163 29.1323C122.163 29.4985 121.996 29.877 121.663 30.2676C121.174 30.8372 120.519 31.1221 119.697 31.1221C118.753 31.1221 118.106 30.7396 117.756 29.9746C117.626 29.7061 117.561 29.3805 117.561 28.998C117.561 28.6156 117.626 28.1924 117.756 27.7285C117.895 27.2565 118.062 26.7642 118.257 26.2515C118.46 25.7306 118.68 25.2057 118.916 24.6768L119.563 23.1387C120.035 21.9912 120.271 21.2344 120.271 20.8682C120.271 20.502 120.23 20.2619 120.149 20.1479C120.076 20.0259 119.994 19.9323 119.905 19.8672L119.661 19.6963C119.579 19.6393 119.539 19.5417 119.539 19.4033C119.539 19.2568 119.591 19.1185 119.697 18.9883C119.811 18.8581 119.958 18.7441 120.137 18.6465C120.503 18.4593 120.93 18.3657 121.418 18.3657C122.615 18.3657 123.213 18.679 123.213 19.3057C123.213 20.0381 123.022 20.8763 122.639 21.8203C122.257 22.7562 121.931 23.513 121.663 24.0908L120.93 25.7754C120.393 27.0124 120.125 27.9035 120.125 28.4487C120.125 28.8068 120.304 28.9858 120.662 28.9858C121.012 28.9858 121.276 28.9411 121.455 28.8516C121.634 28.762 121.764 28.7173 121.846 28.7173Z" fill="white"/>
</g>
<defs>
<filter id="filter0_d_1_795" x="0.488281" y="12" width="128.458" height="30.9922" filterUnits="userSpaceOnUse" color-interpolation-filters="sRGB">
<feFlood flood-opacity="0" result="BackgroundImageFix"/>
<feColorMatrix in="SourceAlpha" type="matrix" values="0 0 0 0 0 0 0 0 0 0 0 0 0 0 0 0 0 0 127 0" result="hardAlpha"/>
<feOffset dy="4"/>
<feGaussianBlur stdDeviation="2"/>
<feComposite in2="hardAlpha" operator="out"/>
<feColorMatrix type="matrix" values="0 0 0 0 0 0 0 0 0 0 0 0 0 0 0 0 0 0 0.25 0"/>
<feBlend mode="normal" in2="BackgroundImageFix" result="effect1_dropShadow_1_795"/>
<feBlend mode="normal" in="SourceGraphic" in2="effect1_dropShadow_1_795" result="shape"/>
</filter>
</defs>
</svg>
