<svg width="132" height="34" viewBox="0 0 132 34" fill="none" xmlns="http://www.w3.org/2000/svg">
<g opacity="0.6" filter="url(#filter0_d_1_886)">
<path d="M44.0896 20.5432C43.4654 20.5767 42.848 20.4008 42.337 20.044C42.1234 19.8871 41.9517 19.6811 41.8365 19.4437C41.7213 19.2064 41.6661 18.9448 41.6758 18.6816V9.04076C41.6707 8.99994 41.6751 8.95851 41.6886 8.91961C41.702 8.88072 41.7243 8.84539 41.7537 8.8163C41.783 8.78722 41.8187 8.76516 41.8579 8.75179C41.8972 8.73842 41.939 8.7341 41.9802 8.73916H43.7433C43.9427 8.73916 44.0371 8.84316 44.0371 9.04076V17.9328C44.0371 18.328 44.2155 18.5256 44.5828 18.5256C44.7385 18.5319 44.8943 18.5144 45.0446 18.4736C45.2545 18.4736 45.3699 18.536 45.3804 18.7232L45.5379 20.0232C45.5454 20.0611 45.5447 20.1001 45.5358 20.1377C45.5268 20.1753 45.5098 20.2106 45.4859 20.2411C45.4621 20.2717 45.4319 20.2968 45.3974 20.3148C45.3629 20.3328 45.3249 20.3433 45.286 20.3456C44.8998 20.472 44.4963 20.5386 44.0896 20.5432Z" fill="#1D2130"/>
<path d="M54.0071 19.4304C53.1212 20.1558 52.0079 20.5526 50.8587 20.5526C49.7095 20.5526 48.5962 20.1558 47.7103 19.4304C46.9316 18.6514 46.4948 17.5993 46.4948 16.5028C46.4948 15.4063 46.9316 14.3542 47.7103 13.5752C48.5979 12.8536 49.7106 12.4592 50.8587 12.4592C52.0068 12.4592 53.1194 12.8536 54.0071 13.5752C54.7678 14.3614 55.1925 15.4084 55.1925 16.4976C55.1925 17.5868 54.7678 18.6339 54.0071 19.42V19.4304ZM49.3684 18.0576C49.7796 18.4267 50.3145 18.6311 50.8692 18.6311C51.4239 18.6311 51.9588 18.4267 52.3699 18.0576C52.742 17.6337 52.9469 17.0907 52.9469 16.5288C52.9469 15.9669 52.742 15.424 52.3699 15C51.9588 14.631 51.4239 14.4266 50.8692 14.4266C50.3145 14.4266 49.7796 14.631 49.3684 15C48.9963 15.424 48.7914 15.9669 48.7914 16.5288C48.7914 17.0907 48.9963 17.6337 49.3684 18.0576Z" fill="#1D2130"/>
<path d="M64.9006 12.7224C65.1 12.7224 65.1945 12.8264 65.1945 13.024V20.4808C65.2128 20.984 65.1178 21.4851 64.9162 21.9474C64.7147 22.4097 64.4118 22.8218 64.0295 23.1536C63.181 23.8706 62.0897 24.2422 60.9756 24.1936C59.9693 24.2286 58.9764 23.9563 58.1315 23.4136C57.7707 23.1788 57.4625 22.873 57.226 22.5151C56.9895 22.1573 56.8297 21.7551 56.7567 21.3336C56.7567 21.1256 56.7567 21.032 57.0401 21.032H58.8032C58.878 21.0345 58.9506 21.0584 59.012 21.1008C59.0734 21.1433 59.1212 21.2024 59.1495 21.2712C59.2638 21.587 59.4918 21.85 59.7897 22.0096C60.1527 22.1952 60.5567 22.2881 60.9651 22.28C61.2115 22.2933 61.4581 22.2579 61.6906 22.1758C61.923 22.0936 62.1366 21.9664 62.3189 21.8016C62.4854 21.6291 62.615 21.425 62.6997 21.2016C62.7845 20.9781 62.8228 20.74 62.8122 20.5016V19.8464C62.1809 20.3065 61.4126 20.5444 60.6292 20.5224C60.081 20.5421 59.5344 20.4519 59.0222 20.2571C58.51 20.0623 58.0429 19.7669 57.6488 19.3888C56.8921 18.6131 56.4692 17.5764 56.4692 16.4976C56.4692 15.4187 56.8921 14.3821 57.6488 13.6064C58.0448 13.2315 58.5125 12.939 59.0244 12.7461C59.5363 12.5532 60.082 12.4638 60.6292 12.4832C61.4352 12.4621 62.2242 12.7153 62.8646 13.2008V13.0344C62.8598 12.9945 62.864 12.9541 62.8769 12.916C62.8898 12.878 62.9111 12.8433 62.9393 12.8144C62.9674 12.7855 63.0017 12.7632 63.0396 12.7491C63.0775 12.735 63.1181 12.7294 63.1585 12.7328L64.9006 12.7224ZM60.8287 18.6712C61.099 18.6795 61.3679 18.6288 61.6164 18.5228C61.8648 18.4167 62.0867 18.2579 62.2664 18.0576C62.6153 17.611 62.8047 17.0623 62.8047 16.4976C62.8047 15.9328 62.6153 15.3841 62.2664 14.9376C62.0874 14.7399 61.8668 14.5835 61.6202 14.4793C61.3737 14.3751 61.1071 14.3256 60.8391 14.3344C60.5657 14.3258 60.2936 14.3763 60.0417 14.4822C59.7898 14.5882 59.5642 14.7471 59.3804 14.948C58.9939 15.3751 58.7906 15.9347 58.8137 16.508C58.7947 17.0756 58.9935 17.6293 59.3699 18.0576C59.5541 18.2579 59.7798 18.4164 60.0316 18.5223C60.2834 18.6282 60.5553 18.679 60.8287 18.6712Z" fill="#1D2130"/>
<path d="M74.2514 19.4304C73.3637 20.152 72.2511 20.5464 71.1029 20.5464C69.9548 20.5464 68.8422 20.152 67.9545 19.4304C67.1931 18.6425 66.7681 17.5937 66.7681 16.5028C66.7681 15.4118 67.1931 14.3631 67.9545 13.5752C68.843 12.8554 69.9553 12.4622 71.1029 12.4622C72.2505 12.4622 73.3629 12.8554 74.2514 13.5752C75.0121 14.3613 75.4368 15.4084 75.4368 16.4976C75.4368 17.5867 75.0121 18.6338 74.2514 19.42V19.4304ZM69.6022 18.0576C69.8034 18.2472 70.0406 18.3955 70.3 18.4936C70.5594 18.5918 70.8359 18.638 71.1134 18.6296C71.3892 18.6366 71.6638 18.5898 71.9213 18.4916C72.1788 18.3935 72.4142 18.246 72.6142 18.0576C72.9802 17.6308 73.1812 17.0889 73.1812 16.5288C73.1812 15.9686 72.9802 15.4268 72.6142 15C72.4142 14.8116 72.1788 14.6641 71.9213 14.5659C71.6638 14.4678 71.3892 14.4209 71.1134 14.428C70.8359 14.4195 70.5594 14.4657 70.3 14.5639C70.0406 14.6621 69.8034 14.8103 69.6022 15C69.2362 15.4268 69.0352 15.9686 69.0352 16.5288C69.0352 17.0889 69.2362 17.6308 69.6022 18.0576Z" fill="#1D2130"/>
<path d="M79.2259 10.9544C78.9485 11.195 78.5923 11.3277 78.2236 11.3277C77.855 11.3277 77.4988 11.195 77.2214 10.9544C77.0956 10.8368 76.9954 10.6949 76.9269 10.5375C76.8584 10.3802 76.8231 10.2106 76.8231 10.0392C76.8231 9.86782 76.8584 9.69823 76.9269 9.54086C76.9954 9.38348 77.0956 9.24163 77.2214 9.124C77.5017 8.88939 77.8568 8.76068 78.2236 8.76068C78.5906 8.76068 78.9456 8.88939 79.2259 9.124C79.3517 9.24163 79.4519 9.38348 79.5204 9.54086C79.5889 9.69823 79.6242 9.86782 79.6242 10.0392C79.6242 10.2106 79.5889 10.3802 79.5204 10.5375C79.4519 10.6949 79.3517 10.8368 79.2259 10.9544ZM79.4463 20.5432C78.8224 20.5735 78.2061 20.3979 77.6937 20.044C77.4834 19.8848 77.3146 19.6781 77.2014 19.4411C77.0882 19.2041 77.0339 18.9437 77.043 18.6816V13.024C77.0379 12.9832 77.0423 12.9418 77.0557 12.9029C77.0692 12.864 77.0915 12.8286 77.1208 12.7995C77.1502 12.7705 77.1859 12.7484 77.2251 12.735C77.2644 12.7217 77.3062 12.7173 77.3473 12.7224H79.1105C79.3099 12.7224 79.4043 12.8264 79.4043 13.024V17.9328C79.4043 18.328 79.5827 18.5256 79.9395 18.5256C80.0987 18.5313 80.2578 18.5138 80.4118 18.4736C80.6217 18.4736 80.7371 18.536 80.7476 18.7232L80.9051 20.0232C80.9126 20.0611 80.9119 20.1002 80.9029 20.1378C80.894 20.1754 80.877 20.2106 80.8531 20.2412C80.8293 20.2717 80.7991 20.2969 80.7646 20.3149C80.7301 20.3329 80.6921 20.3434 80.6532 20.3456C80.2636 20.4727 79.8565 20.5394 79.4463 20.5432Z" fill="#1D2130"/>
<path d="M87.3909 12.4728C87.9416 12.4513 88.4911 12.5396 89.0067 12.7325C89.5223 12.9255 89.9935 13.2191 90.3924 13.596C91.1345 14.3853 91.5471 15.424 91.5471 16.5028C91.5471 17.5816 91.1345 18.6203 90.3924 19.4096C89.9954 19.7899 89.5248 20.0864 89.0089 20.2812C88.493 20.4761 87.9425 20.5652 87.3909 20.5432C86.605 20.5605 85.8349 20.3232 85.1975 19.8672V23.6216C85.1975 23.8192 85.0925 23.9128 84.8931 23.9128H83.13C83.0898 23.9203 83.0483 23.9179 83.0092 23.9059C82.9702 23.8939 82.9346 23.8726 82.9057 23.844C82.8767 23.8153 82.8553 23.78 82.8432 23.7413C82.8311 23.7026 82.8287 23.6615 82.8362 23.6216V15.0936C82.8485 15.0102 82.841 14.9251 82.8143 14.8451C82.7875 14.765 82.7423 14.6923 82.6821 14.6327C82.622 14.5731 82.5486 14.5282 82.4678 14.5017C82.3871 14.4752 82.3012 14.4678 82.217 14.48H81.8707C81.6398 14.48 81.5243 14.3968 81.5243 14.2304V13.0032C81.5189 12.9273 81.5399 12.8518 81.5838 12.7893C81.6277 12.7269 81.6919 12.6812 81.7657 12.66C82.1287 12.5293 82.5129 12.4658 82.8991 12.4728C83.2843 12.439 83.6708 12.52 84.0092 12.7053C84.3476 12.8905 84.6225 13.1717 84.7987 13.5128C85.1367 13.174 85.5409 12.907 85.9866 12.7281C86.4323 12.5493 86.9101 12.4624 87.3909 12.4728ZM85.7537 18.0576C85.9408 18.2514 86.1656 18.4056 86.4145 18.511C86.6634 18.6164 86.9313 18.6707 87.202 18.6707C87.4726 18.6707 87.7405 18.6164 87.9894 18.511C88.2383 18.4056 88.4631 18.2514 88.6502 18.0576C89.0444 17.622 89.2515 17.0511 89.2275 16.4664C89.2549 15.8813 89.0474 15.3091 88.6502 14.8752C88.4631 14.6814 88.2383 14.5272 87.9894 14.4218C87.7405 14.3165 87.4726 14.2621 87.202 14.2621C86.9313 14.2621 86.6634 14.3165 86.4145 14.4218C86.1656 14.5272 85.9408 14.6814 85.7537 14.8752C85.3718 15.3168 85.1731 15.8854 85.1975 16.4664C85.1762 17.047 85.3746 17.6145 85.7537 18.0576Z" fill="#1D2130"/>
<path d="M96.5002 20.5431C95.5581 20.5815 94.6239 20.3582 93.803 19.8983C93.4737 19.7018 93.1932 19.4342 92.9825 19.1155C92.7717 18.7969 92.6361 18.4353 92.5857 18.0575C92.5857 17.8495 92.6591 17.7456 92.89 17.7456H94.4327C94.5061 17.7484 94.5773 17.7712 94.6384 17.8116C94.6995 17.852 94.7482 17.9083 94.7791 17.9743C94.9994 18.5359 95.5767 18.8167 96.5002 18.8167C96.8223 18.8313 97.1431 18.767 97.4342 18.6295C97.5347 18.5846 97.6209 18.5134 97.6838 18.4237C97.7466 18.3339 97.7837 18.229 97.791 18.12C97.791 17.8496 97.6231 17.6623 97.2873 17.5375C96.889 17.4062 96.4771 17.319 96.0594 17.2775C95.5646 17.222 95.0738 17.1352 94.5901 17.0175C94.1198 16.912 93.6921 16.6694 93.3623 16.3208C93.168 16.0838 93.025 15.8098 92.9422 15.5158C92.8593 15.2217 92.8384 14.9139 92.8808 14.6116C92.9231 14.3092 93.0277 14.0186 93.1882 13.758C93.3487 13.4974 93.5615 13.2723 93.8135 13.0968C94.57 12.6192 95.4575 12.3866 96.3533 12.4312C97.2205 12.4021 98.0786 12.6147 98.83 13.0448C99.1328 13.2147 99.3936 13.4495 99.5933 13.7319C99.793 14.0144 99.9266 14.3375 99.9844 14.6776C99.9844 14.8856 99.89 14.9895 99.7011 14.9895H98.1479C98.0825 14.9934 98.0174 14.9776 97.9612 14.9442C97.9051 14.9108 97.8604 14.8613 97.833 14.8024C97.7292 14.556 97.5338 14.3587 97.2873 14.2512C97.0092 14.1069 96.6985 14.0354 96.3847 14.0432C96.0771 14.0266 95.7702 14.0874 95.4927 14.22C95.3949 14.2573 95.3107 14.3229 95.2508 14.4081C95.1909 14.4934 95.1582 14.5945 95.1569 14.6984C95.1636 14.8406 95.2161 14.9769 95.3068 15.0874C95.3974 15.1978 95.5215 15.2765 95.6606 15.312C96.0636 15.4625 96.4826 15.5671 96.9095 15.624C97.4003 15.688 97.8873 15.7782 98.3683 15.8943C98.8386 15.9998 99.2663 16.2425 99.5961 16.5912C99.7726 16.7832 99.9089 17.008 99.9972 17.2525C100.085 17.4971 100.124 17.7566 100.11 18.0159C100.119 18.3755 100.034 18.7312 99.8632 19.0483C99.6921 19.3655 99.441 19.6333 99.1344 19.8256C98.3503 20.3244 97.4314 20.5747 96.5002 20.5431Z" fill="#1D2130"/>
<path d="M111.203 20.0232C111.209 20.0601 111.208 20.0978 111.199 20.1341C111.19 20.1705 111.174 20.2046 111.151 20.2347C111.129 20.2647 111.1 20.29 111.068 20.309C111.035 20.3281 110.999 20.3405 110.962 20.3456C110.579 20.4695 110.179 20.5361 109.776 20.5432C109.377 20.5841 108.974 20.5223 108.607 20.3638C108.239 20.2053 107.919 19.9554 107.677 19.6384C106.936 20.27 105.977 20.594 105.001 20.5432C104.548 20.5639 104.095 20.4904 103.672 20.3274C103.249 20.1644 102.865 19.9155 102.545 19.5968C102.227 19.2628 101.981 18.8686 101.82 18.438C101.66 18.0073 101.589 17.5489 101.611 17.0904V13.024C101.611 12.8264 101.706 12.7224 101.905 12.7224H103.668C103.868 12.7224 103.962 12.8264 103.962 13.024V16.7784C103.943 17.2461 104.104 17.7035 104.413 18.0576C104.568 18.2197 104.755 18.3473 104.963 18.4316C105.171 18.5159 105.395 18.555 105.62 18.5464C105.85 18.5563 106.08 18.521 106.296 18.4425C106.512 18.3639 106.711 18.2437 106.88 18.0888C107.039 17.9254 107.164 17.7313 107.245 17.5185C107.326 17.3056 107.363 17.0785 107.352 16.8512V13.024C107.352 12.8264 107.446 12.7224 107.646 12.7224H109.43C109.629 12.7224 109.724 12.8264 109.724 13.024V17.9224C109.724 18.328 109.902 18.5256 110.248 18.5256C110.411 18.5318 110.574 18.5143 110.731 18.4736C110.771 18.4625 110.812 18.4606 110.853 18.4678C110.894 18.475 110.932 18.4912 110.965 18.5152C110.999 18.5393 111.026 18.5704 111.045 18.6064C111.065 18.6425 111.076 18.6824 111.077 18.7232L111.203 20.0232Z" fill="#1D2130"/>
<path d="M127.879 20.0232C127.889 20.0604 127.89 20.0993 127.882 20.1369C127.874 20.1745 127.859 20.21 127.835 20.2409C127.812 20.2717 127.783 20.2971 127.749 20.3152C127.714 20.3333 127.677 20.3437 127.638 20.3456C127.248 20.4713 126.841 20.5379 126.431 20.5432C125.807 20.5751 125.19 20.3994 124.679 20.044C124.457 19.8918 124.277 19.6878 124.155 19.4501C124.032 19.2125 123.97 18.9485 123.975 18.6816V16.2376C123.997 15.7712 123.84 15.314 123.535 14.9584C123.387 14.7959 123.206 14.6677 123.002 14.5832C122.799 14.4987 122.579 14.4599 122.359 14.4696C122.161 14.4622 121.963 14.4995 121.781 14.5788C121.6 14.658 121.438 14.7772 121.31 14.9272C121.033 15.2757 120.891 15.7112 120.911 16.1544V19.992C120.911 20.1896 120.816 20.2936 120.617 20.2936H118.843C118.802 20.2987 118.76 20.2943 118.721 20.281C118.682 20.2676 118.646 20.2455 118.617 20.2165C118.588 20.1874 118.565 20.152 118.552 20.1131C118.538 20.0743 118.534 20.0328 118.539 19.992V16.2376C118.562 15.7763 118.417 15.3223 118.13 14.9584C118.002 14.8055 117.841 14.6825 117.66 14.598C117.479 14.5135 117.281 14.4697 117.08 14.4696C116.866 14.461 116.653 14.4974 116.454 14.5762C116.255 14.6551 116.075 14.7747 115.926 14.9272C115.626 15.2646 115.471 15.7053 115.496 16.1544V19.992C115.501 20.0328 115.496 20.0743 115.483 20.1131C115.469 20.152 115.447 20.1874 115.418 20.2165C115.388 20.2455 115.353 20.2676 115.314 20.281C115.274 20.2943 115.232 20.2987 115.191 20.2936H113.481C113.281 20.2936 113.187 20.1896 113.187 19.992V15.0936C113.199 15.0102 113.192 14.9251 113.165 14.845C113.138 14.765 113.093 14.6923 113.033 14.6327C112.973 14.5731 112.899 14.5282 112.818 14.5017C112.738 14.4752 112.652 14.4678 112.568 14.48H112.221C111.99 14.48 111.875 14.3968 111.875 14.2304V13.0032C111.869 12.9273 111.89 12.8518 111.934 12.7893C111.978 12.7269 112.043 12.6812 112.116 12.66C112.479 12.5292 112.864 12.4658 113.25 12.4728C113.62 12.4415 113.993 12.5147 114.323 12.684C114.654 12.8533 114.929 13.1118 115.118 13.4296C115.472 13.0971 115.891 12.8404 116.35 12.6758C116.809 12.5112 117.297 12.4421 117.783 12.4728C118.256 12.4499 118.728 12.5378 119.16 12.7294C119.592 12.9209 119.973 13.2107 120.271 13.5752C120.618 13.2011 121.045 12.9082 121.52 12.7175C121.996 12.5269 122.508 12.4433 123.02 12.4728C123.478 12.4516 123.936 12.5247 124.364 12.6876C124.792 12.8505 125.182 13.0996 125.508 13.4192C125.826 13.7525 126.074 14.1465 126.234 14.5774C126.395 15.0082 126.465 15.4669 126.442 15.9256V17.9328C126.442 18.328 126.62 18.5256 126.956 18.5256C127.119 18.5331 127.281 18.5156 127.439 18.4736C127.656 18.4736 127.771 18.5568 127.785 18.7232L127.879 20.0232Z" fill="#1D2130"/>
<path d="M4.81841 11.3704C5.59267 8.28648 7.38586 5.54789 9.91244 3.59072C12.439 1.63355 15.5537 0.570312 18.7606 0.570312C21.9675 0.570312 25.0822 1.63355 27.6088 3.59072C30.1354 5.54789 31.9286 8.28648 32.7029 11.3704H31.4435C29.319 11.3394 27.2381 11.9686 25.493 13.1696C25.3923 13.2419 25.2871 13.3079 25.1782 13.3672H25.0312C24.9223 13.3079 24.8171 13.2419 24.7164 13.1696C22.9558 11.9964 20.8823 11.3698 18.7606 11.3698C16.639 11.3698 14.5655 11.9964 12.8049 13.1696C12.7042 13.2419 12.599 13.3079 12.49 13.3672H12.3431C12.2341 13.3079 12.129 13.2419 12.0283 13.1696C10.2831 11.9686 8.20224 11.3394 6.07777 11.3704H4.81841ZM29.1766 17.8912C29.8231 17.3923 30.6244 17.1313 31.4435 17.1528H33.1331V13.8144H31.4435C30.0007 13.7971 28.5909 14.2422 27.424 15.0832C26.7674 15.563 25.973 15.8218 25.1572 15.8218C24.3413 15.8218 23.547 15.563 22.8903 15.0832C21.6938 14.2578 20.2709 13.8154 18.8131 13.8154C17.3553 13.8154 15.9324 14.2578 14.7359 15.0832C14.0793 15.563 13.2849 15.8218 12.4691 15.8218C11.6532 15.8218 10.8588 15.563 10.2022 15.0832C9.02091 14.2314 7.59089 13.7858 6.13024 13.8144H4.38812V17.1528H6.07777C6.89689 17.1313 7.69814 17.3923 8.34463 17.8912C9.53894 18.7171 10.9602 19.16 12.4166 19.16C13.8729 19.16 15.2942 18.7171 16.4885 17.8912C17.1358 17.3938 17.9365 17.133 18.7554 17.1528C19.5748 17.1296 20.3766 17.3907 21.0222 17.8912C22.2187 18.7166 23.6416 19.1591 25.0994 19.1591C26.5573 19.1591 27.9802 18.7166 29.1766 17.8912ZM29.1766 23.8608C29.8231 23.3619 30.6244 23.1009 31.4435 23.1224H33.1331V19.784H31.4435C30.0007 19.7667 28.5909 20.2118 27.424 21.0528C26.7674 21.5326 25.973 21.7914 25.1572 21.7914C24.3413 21.7914 23.547 21.5326 22.8903 21.0528C21.6938 20.2274 20.2709 19.785 18.8131 19.785C17.3553 19.785 15.9324 20.2274 14.7359 21.0528C14.0793 21.5326 13.2849 21.7914 12.4691 21.7914C11.6532 21.7914 10.8588 21.5326 10.2022 21.0528C9.02091 20.201 7.59089 19.7554 6.13024 19.784H4.38812V23.1224H6.07777C6.89689 23.1009 7.69814 23.3619 8.34463 23.8608C9.53894 24.6867 10.9602 25.1296 12.4166 25.1296C13.8729 25.1296 15.2942 24.6867 16.4885 23.8608C17.1358 23.3634 17.9365 23.1026 18.7554 23.1224C19.5748 23.0992 20.3766 23.3603 21.0222 23.8608C22.2187 24.6862 23.6416 25.1287 25.0994 25.1287C26.5573 25.1287 27.9802 24.6862 29.1766 23.8608Z" fill="#1D2130"/>
</g>
<defs>
<filter id="filter0_d_1_886" x="0.388123" y="0.570312" width="131.499" height="32.5596" filterUnits="userSpaceOnUse" color-interpolation-filters="sRGB">
<feFlood flood-opacity="0" result="BackgroundImageFix"/>
<feColorMatrix in="SourceAlpha" type="matrix" values="0 0 0 0 0 0 0 0 0 0 0 0 0 0 0 0 0 0 127 0" result="hardAlpha"/>
<feOffset dy="4"/>
<feGaussianBlur stdDeviation="2"/>
<feComposite in2="hardAlpha" operator="out"/>
<feColorMatrix type="matrix" values="0 0 0 0 0 0 0 0 0 0 0 0 0 0 0 0 0 0 0.25 0"/>
<feBlend mode="normal" in2="BackgroundImageFix" result="effect1_dropShadow_1_886"/>
<feBlend mode="normal" in="SourceGraphic" in2="effect1_dropShadow_1_886" result="shape"/>
</filter>
</defs>
</svg>
