<svg width="652" height="533" viewBox="0 0 652 533" fill="none" xmlns="http://www.w3.org/2000/svg">
<g filter="url(#filter0_d_31_987)">
<rect x="4" y="3" width="644" height="525" rx="24" fill="#E0F0FC" shape-rendering="crispEdges"/>
<rect x="28" y="27" width="596" height="226" rx="15" fill="#D9D9D9"/>
<path d="M53.3125 308.938V314.844C53.3125 317.406 53.0391 319.617 52.4922 321.477C51.9453 323.32 51.1562 324.836 50.125 326.023C49.1094 327.195 47.8984 328.062 46.4922 328.625C45.0859 329.188 43.5234 329.469 41.8047 329.469C40.4297 329.469 39.1484 329.297 37.9609 328.953C36.7734 328.594 35.7031 328.039 34.75 327.289C33.8125 326.539 33 325.594 32.3125 324.453C31.6406 323.297 31.125 321.922 30.7656 320.328C30.4062 318.734 30.2266 316.906 30.2266 314.844V308.938C30.2266 306.375 30.5 304.18 31.0469 302.352C31.6094 300.508 32.3984 299 33.4141 297.828C34.4453 296.656 35.6641 295.797 37.0703 295.25C38.4766 294.688 40.0391 294.406 41.7578 294.406C43.1328 294.406 44.4062 294.586 45.5781 294.945C46.7656 295.289 47.8359 295.828 48.7891 296.562C49.7422 297.297 50.5547 298.242 51.2266 299.398C51.8984 300.539 52.4141 301.906 52.7734 303.5C53.1328 305.078 53.3125 306.891 53.3125 308.938ZM46.5391 315.734V308.023C46.5391 306.789 46.4688 305.711 46.3281 304.789C46.2031 303.867 46.0078 303.086 45.7422 302.445C45.4766 301.789 45.1484 301.258 44.7578 300.852C44.3672 300.445 43.9219 300.148 43.4219 299.961C42.9219 299.773 42.3672 299.68 41.7578 299.68C40.9922 299.68 40.3125 299.828 39.7188 300.125C39.1406 300.422 38.6484 300.898 38.2422 301.555C37.8359 302.195 37.5234 303.055 37.3047 304.133C37.1016 305.195 37 306.492 37 308.023V315.734C37 316.969 37.0625 318.055 37.1875 318.992C37.3281 319.93 37.5312 320.734 37.7969 321.406C38.0781 322.062 38.4062 322.602 38.7812 323.023C39.1719 323.43 39.6172 323.727 40.1172 323.914C40.6328 324.102 41.1953 324.195 41.8047 324.195C42.5547 324.195 43.2188 324.047 43.7969 323.75C44.3906 323.438 44.8906 322.953 45.2969 322.297C45.7188 321.625 46.0312 320.75 46.2344 319.672C46.4375 318.594 46.5391 317.281 46.5391 315.734ZM81.0859 294.875V298.508L67.8906 329H60.7656L73.9609 300.148H56.9688V294.875H81.0859ZM125.898 294.875V329H118.867L105.156 306.125V329H98.125V294.875H105.156L118.891 317.773V294.875H125.898ZM160.047 311.141V312.758C160.047 315.352 159.695 317.68 158.992 319.742C158.289 321.805 157.297 323.562 156.016 325.016C154.734 326.453 153.203 327.555 151.422 328.32C149.656 329.086 147.695 329.469 145.539 329.469C143.398 329.469 141.438 329.086 139.656 328.32C137.891 327.555 136.359 326.453 135.062 325.016C133.766 323.562 132.758 321.805 132.039 319.742C131.336 317.68 130.984 315.352 130.984 312.758V311.141C130.984 308.531 131.336 306.203 132.039 304.156C132.742 302.094 133.734 300.336 135.016 298.883C136.312 297.43 137.844 296.32 139.609 295.555C141.391 294.789 143.352 294.406 145.492 294.406C147.648 294.406 149.609 294.789 151.375 295.555C153.156 296.32 154.688 297.43 155.969 298.883C157.266 300.336 158.266 302.094 158.969 304.156C159.688 306.203 160.047 308.531 160.047 311.141ZM152.945 312.758V311.094C152.945 309.281 152.781 307.688 152.453 306.312C152.125 304.938 151.641 303.781 151 302.844C150.359 301.906 149.578 301.203 148.656 300.734C147.734 300.25 146.68 300.008 145.492 300.008C144.305 300.008 143.25 300.25 142.328 300.734C141.422 301.203 140.648 301.906 140.008 302.844C139.383 303.781 138.906 304.938 138.578 306.312C138.25 307.688 138.086 309.281 138.086 311.094V312.758C138.086 314.555 138.25 316.148 138.578 317.539C138.906 318.914 139.391 320.078 140.031 321.031C140.672 321.969 141.453 322.68 142.375 323.164C143.297 323.648 144.352 323.891 145.539 323.891C146.727 323.891 147.781 323.648 148.703 323.164C149.625 322.68 150.398 321.969 151.023 321.031C151.648 320.078 152.125 318.914 152.453 317.539C152.781 316.148 152.945 314.555 152.945 312.758ZM176.898 321.875L184.938 294.875H192.766L180.883 329H175.727L176.898 321.875ZM169.492 294.875L177.508 321.875L178.727 329H173.523L161.711 294.875H169.492Z" fill="black"/>
<path d="M33.0391 353.938V371H29.5234V353.938H33.0391ZM43.2578 353.938L36.4961 362.363L32.5938 366.559L31.9609 363.23L34.5977 359.621L38.9453 353.938H43.2578ZM39.2617 371L34.2344 363.113L36.8359 360.934L43.4219 371H39.2617ZM51.4141 368.141V362.492C51.4141 362.086 51.3477 361.738 51.2148 361.449C51.082 361.152 50.875 360.922 50.5938 360.758C50.3203 360.594 49.9648 360.512 49.5273 360.512C49.1523 360.512 48.8281 360.578 48.5547 360.711C48.2812 360.836 48.0703 361.02 47.9219 361.262C47.7734 361.496 47.6992 361.773 47.6992 362.094H44.3242C44.3242 361.555 44.4492 361.043 44.6992 360.559C44.9492 360.074 45.3125 359.648 45.7891 359.281C46.2656 358.906 46.832 358.613 47.4883 358.402C48.1523 358.191 48.8945 358.086 49.7148 358.086C50.6992 358.086 51.5742 358.25 52.3398 358.578C53.1055 358.906 53.707 359.398 54.1445 360.055C54.5898 360.711 54.8125 361.531 54.8125 362.516V367.941C54.8125 368.637 54.8555 369.207 54.9414 369.652C55.0273 370.09 55.1523 370.473 55.3164 370.801V371H51.9062C51.7422 370.656 51.6172 370.227 51.5312 369.711C51.4531 369.188 51.4141 368.664 51.4141 368.141ZM51.8594 363.277L51.8828 365.188H49.9961C49.5508 365.188 49.1641 365.238 48.8359 365.34C48.5078 365.441 48.2383 365.586 48.0273 365.773C47.8164 365.953 47.6602 366.164 47.5586 366.406C47.4648 366.648 47.418 366.914 47.418 367.203C47.418 367.492 47.4844 367.754 47.6172 367.988C47.75 368.215 47.9414 368.395 48.1914 368.527C48.4414 368.652 48.7344 368.715 49.0703 368.715C49.5781 368.715 50.0195 368.613 50.3945 368.41C50.7695 368.207 51.0586 367.957 51.2617 367.66C51.4727 367.363 51.582 367.082 51.5898 366.816L52.4805 368.246C52.3555 368.566 52.1836 368.898 51.9648 369.242C51.7539 369.586 51.4844 369.91 51.1562 370.215C50.8281 370.512 50.4336 370.758 49.9727 370.953C49.5117 371.141 48.9648 371.234 48.332 371.234C47.5273 371.234 46.7969 371.074 46.1406 370.754C45.4922 370.426 44.9766 369.977 44.5938 369.406C44.2188 368.828 44.0312 368.172 44.0312 367.438C44.0312 366.773 44.1562 366.184 44.4062 365.668C44.6562 365.152 45.0234 364.719 45.5078 364.367C46 364.008 46.6133 363.738 47.3477 363.559C48.082 363.371 48.9336 363.277 49.9023 363.277H51.8594ZM64.9141 367.965V358.32H68.2891V371H65.1133L64.9141 367.965ZM65.2891 365.363L66.2852 365.34C66.2852 366.184 66.1875 366.969 65.9922 367.695C65.7969 368.414 65.5039 369.039 65.1133 369.57C64.7227 370.094 64.2305 370.504 63.6367 370.801C63.043 371.09 62.3438 371.234 61.5391 371.234C60.9219 371.234 60.3516 371.148 59.8281 370.977C59.3125 370.797 58.8672 370.52 58.4922 370.145C58.125 369.762 57.8359 369.273 57.625 368.68C57.4219 368.078 57.3203 367.355 57.3203 366.512V358.32H60.6953V366.535C60.6953 366.91 60.7383 367.227 60.8242 367.484C60.918 367.742 61.0469 367.953 61.2109 368.117C61.375 368.281 61.5664 368.398 61.7852 368.469C62.0117 368.539 62.2617 368.574 62.5352 368.574C63.2305 368.574 63.7773 368.434 64.1758 368.152C64.582 367.871 64.8672 367.488 65.0312 367.004C65.2031 366.512 65.2891 365.965 65.2891 365.363ZM74.1719 361.027V371H70.7969V358.32H73.9609L74.1719 361.027ZM73.6797 364.215H72.7656C72.7656 363.277 72.8867 362.434 73.1289 361.684C73.3711 360.926 73.7109 360.281 74.1484 359.75C74.5859 359.211 75.1055 358.801 75.707 358.52C76.3164 358.23 76.9961 358.086 77.7461 358.086C78.3398 358.086 78.8828 358.172 79.375 358.344C79.8672 358.516 80.2891 358.789 80.6406 359.164C81 359.539 81.2734 360.035 81.4609 360.652C81.6562 361.27 81.7539 362.023 81.7539 362.914V371H78.3555V362.902C78.3555 362.34 78.2773 361.902 78.1211 361.59C77.9648 361.277 77.7344 361.059 77.4297 360.934C77.1328 360.801 76.7656 360.734 76.3281 360.734C75.875 360.734 75.4805 360.824 75.1445 361.004C74.8164 361.184 74.543 361.434 74.3242 361.754C74.1133 362.066 73.9531 362.434 73.8438 362.855C73.7344 363.277 73.6797 363.73 73.6797 364.215ZM91.1641 368.141V362.492C91.1641 362.086 91.0977 361.738 90.9648 361.449C90.832 361.152 90.625 360.922 90.3438 360.758C90.0703 360.594 89.7148 360.512 89.2773 360.512C88.9023 360.512 88.5781 360.578 88.3047 360.711C88.0312 360.836 87.8203 361.02 87.6719 361.262C87.5234 361.496 87.4492 361.773 87.4492 362.094H84.0742C84.0742 361.555 84.1992 361.043 84.4492 360.559C84.6992 360.074 85.0625 359.648 85.5391 359.281C86.0156 358.906 86.582 358.613 87.2383 358.402C87.9023 358.191 88.6445 358.086 89.4648 358.086C90.4492 358.086 91.3242 358.25 92.0898 358.578C92.8555 358.906 93.457 359.398 93.8945 360.055C94.3398 360.711 94.5625 361.531 94.5625 362.516V367.941C94.5625 368.637 94.6055 369.207 94.6914 369.652C94.7773 370.09 94.9023 370.473 95.0664 370.801V371H91.6562C91.4922 370.656 91.3672 370.227 91.2812 369.711C91.2031 369.188 91.1641 368.664 91.1641 368.141ZM91.6094 363.277L91.6328 365.188H89.7461C89.3008 365.188 88.9141 365.238 88.5859 365.34C88.2578 365.441 87.9883 365.586 87.7773 365.773C87.5664 365.953 87.4102 366.164 87.3086 366.406C87.2148 366.648 87.168 366.914 87.168 367.203C87.168 367.492 87.2344 367.754 87.3672 367.988C87.5 368.215 87.6914 368.395 87.9414 368.527C88.1914 368.652 88.4844 368.715 88.8203 368.715C89.3281 368.715 89.7695 368.613 90.1445 368.41C90.5195 368.207 90.8086 367.957 91.0117 367.66C91.2227 367.363 91.332 367.082 91.3398 366.816L92.2305 368.246C92.1055 368.566 91.9336 368.898 91.7148 369.242C91.5039 369.586 91.2344 369.91 90.9062 370.215C90.5781 370.512 90.1836 370.758 89.7227 370.953C89.2617 371.141 88.7148 371.234 88.082 371.234C87.2773 371.234 86.5469 371.074 85.8906 370.754C85.2422 370.426 84.7266 369.977 84.3438 369.406C83.9688 368.828 83.7812 368.172 83.7812 367.438C83.7812 366.773 83.9062 366.184 84.1562 365.668C84.4062 365.152 84.7734 364.719 85.2578 364.367C85.75 364.008 86.3633 363.738 87.0977 363.559C87.832 363.371 88.6836 363.277 89.6523 363.277H91.6094ZM104.02 367.496C104.02 367.254 103.949 367.035 103.809 366.84C103.668 366.645 103.406 366.465 103.023 366.301C102.648 366.129 102.105 365.973 101.395 365.832C100.754 365.691 100.156 365.516 99.6016 365.305C99.0547 365.086 98.5781 364.824 98.1719 364.52C97.7734 364.215 97.4609 363.855 97.2344 363.441C97.0078 363.02 96.8945 362.539 96.8945 362C96.8945 361.469 97.0078 360.969 97.2344 360.5C97.4688 360.031 97.8008 359.617 98.2305 359.258C98.668 358.891 99.1992 358.605 99.8242 358.402C100.457 358.191 101.168 358.086 101.957 358.086C103.059 358.086 104.004 358.262 104.793 358.613C105.59 358.965 106.199 359.449 106.621 360.066C107.051 360.676 107.266 361.371 107.266 362.152H103.891C103.891 361.824 103.82 361.531 103.68 361.273C103.547 361.008 103.336 360.801 103.047 360.652C102.766 360.496 102.398 360.418 101.945 360.418C101.57 360.418 101.246 360.484 100.973 360.617C100.699 360.742 100.488 360.914 100.34 361.133C100.199 361.344 100.129 361.578 100.129 361.836C100.129 362.031 100.168 362.207 100.246 362.363C100.332 362.512 100.469 362.648 100.656 362.773C100.844 362.898 101.086 363.016 101.383 363.125C101.688 363.227 102.062 363.32 102.508 363.406C103.422 363.594 104.238 363.84 104.957 364.145C105.676 364.441 106.246 364.848 106.668 365.363C107.09 365.871 107.301 366.539 107.301 367.367C107.301 367.93 107.176 368.445 106.926 368.914C106.676 369.383 106.316 369.793 105.848 370.145C105.379 370.488 104.816 370.758 104.16 370.953C103.512 371.141 102.781 371.234 101.969 371.234C100.789 371.234 99.7891 371.023 98.9688 370.602C98.1562 370.18 97.5391 369.645 97.1172 368.996C96.7031 368.34 96.4961 367.668 96.4961 366.98H99.6953C99.7109 367.441 99.8281 367.812 100.047 368.094C100.273 368.375 100.559 368.578 100.902 368.703C101.254 368.828 101.633 368.891 102.039 368.891C102.477 368.891 102.84 368.832 103.129 368.715C103.418 368.59 103.637 368.426 103.785 368.223C103.941 368.012 104.02 367.77 104.02 367.496ZM122.125 362.352V365H115.504V362.352H122.125ZM137.805 363.512H133.422L133.398 361.098H137.078C137.727 361.098 138.258 361.016 138.672 360.852C139.086 360.68 139.395 360.434 139.598 360.113C139.809 359.785 139.914 359.387 139.914 358.918C139.914 358.387 139.812 357.957 139.609 357.629C139.414 357.301 139.105 357.062 138.684 356.914C138.27 356.766 137.734 356.691 137.078 356.691H134.641V371H131.125V353.938H137.078C138.07 353.938 138.957 354.031 139.738 354.219C140.527 354.406 141.195 354.691 141.742 355.074C142.289 355.457 142.707 355.941 142.996 356.527C143.285 357.105 143.43 357.793 143.43 358.59C143.43 359.293 143.27 359.941 142.949 360.535C142.637 361.129 142.141 361.613 141.461 361.988C140.789 362.363 139.91 362.57 138.824 362.609L137.805 363.512ZM137.652 371H132.461L133.832 368.258H137.652C138.27 368.258 138.773 368.16 139.164 367.965C139.555 367.762 139.844 367.488 140.031 367.145C140.219 366.801 140.312 366.406 140.312 365.961C140.312 365.461 140.227 365.027 140.055 364.66C139.891 364.293 139.625 364.012 139.258 363.816C138.891 363.613 138.406 363.512 137.805 363.512H134.418L134.441 361.098H138.66L139.469 362.047C140.508 362.031 141.344 362.215 141.977 362.598C142.617 362.973 143.082 363.461 143.371 364.062C143.668 364.664 143.816 365.309 143.816 365.996C143.816 367.09 143.578 368.012 143.102 368.762C142.625 369.504 141.926 370.062 141.004 370.438C140.09 370.812 138.973 371 137.652 371ZM153.086 368.141V362.492C153.086 362.086 153.02 361.738 152.887 361.449C152.754 361.152 152.547 360.922 152.266 360.758C151.992 360.594 151.637 360.512 151.199 360.512C150.824 360.512 150.5 360.578 150.227 360.711C149.953 360.836 149.742 361.02 149.594 361.262C149.445 361.496 149.371 361.773 149.371 362.094H145.996C145.996 361.555 146.121 361.043 146.371 360.559C146.621 360.074 146.984 359.648 147.461 359.281C147.938 358.906 148.504 358.613 149.16 358.402C149.824 358.191 150.566 358.086 151.387 358.086C152.371 358.086 153.246 358.25 154.012 358.578C154.777 358.906 155.379 359.398 155.816 360.055C156.262 360.711 156.484 361.531 156.484 362.516V367.941C156.484 368.637 156.527 369.207 156.613 369.652C156.699 370.09 156.824 370.473 156.988 370.801V371H153.578C153.414 370.656 153.289 370.227 153.203 369.711C153.125 369.188 153.086 368.664 153.086 368.141ZM153.531 363.277L153.555 365.188H151.668C151.223 365.188 150.836 365.238 150.508 365.34C150.18 365.441 149.91 365.586 149.699 365.773C149.488 365.953 149.332 366.164 149.23 366.406C149.137 366.648 149.09 366.914 149.09 367.203C149.09 367.492 149.156 367.754 149.289 367.988C149.422 368.215 149.613 368.395 149.863 368.527C150.113 368.652 150.406 368.715 150.742 368.715C151.25 368.715 151.691 368.613 152.066 368.41C152.441 368.207 152.73 367.957 152.934 367.66C153.145 367.363 153.254 367.082 153.262 366.816L154.152 368.246C154.027 368.566 153.855 368.898 153.637 369.242C153.426 369.586 153.156 369.91 152.828 370.215C152.5 370.512 152.105 370.758 151.645 370.953C151.184 371.141 150.637 371.234 150.004 371.234C149.199 371.234 148.469 371.074 147.812 370.754C147.164 370.426 146.648 369.977 146.266 369.406C145.891 368.828 145.703 368.172 145.703 367.438C145.703 366.773 145.828 366.184 146.078 365.668C146.328 365.152 146.695 364.719 147.18 364.367C147.672 364.008 148.285 363.738 149.02 363.559C149.754 363.371 150.605 363.277 151.574 363.277H153.531ZM162.461 361.086V371H159.086V358.32H162.262L162.461 361.086ZM166.281 358.238L166.223 361.367C166.059 361.344 165.859 361.324 165.625 361.309C165.398 361.285 165.191 361.273 165.004 361.273C164.527 361.273 164.113 361.336 163.762 361.461C163.418 361.578 163.129 361.754 162.895 361.988C162.668 362.223 162.496 362.508 162.379 362.844C162.27 363.18 162.207 363.562 162.191 363.992L161.512 363.781C161.512 362.961 161.594 362.207 161.758 361.52C161.922 360.824 162.16 360.219 162.473 359.703C162.793 359.188 163.184 358.789 163.645 358.508C164.105 358.227 164.633 358.086 165.227 358.086C165.414 358.086 165.605 358.102 165.801 358.133C165.996 358.156 166.156 358.191 166.281 358.238ZM172.879 368.598C173.293 368.598 173.66 368.52 173.98 368.363C174.301 368.199 174.551 367.973 174.73 367.684C174.918 367.387 175.016 367.039 175.023 366.641H178.199C178.191 367.531 177.953 368.324 177.484 369.02C177.016 369.707 176.387 370.25 175.598 370.648C174.809 371.039 173.926 371.234 172.949 371.234C171.965 371.234 171.105 371.07 170.371 370.742C169.645 370.414 169.039 369.961 168.555 369.383C168.07 368.797 167.707 368.117 167.465 367.344C167.223 366.562 167.102 365.727 167.102 364.836V364.496C167.102 363.598 167.223 362.762 167.465 361.988C167.707 361.207 168.07 360.527 168.555 359.949C169.039 359.363 169.645 358.906 170.371 358.578C171.098 358.25 171.949 358.086 172.926 358.086C173.965 358.086 174.875 358.285 175.656 358.684C176.445 359.082 177.062 359.652 177.508 360.395C177.961 361.129 178.191 362 178.199 363.008H175.023C175.016 362.586 174.926 362.203 174.754 361.859C174.59 361.516 174.348 361.242 174.027 361.039C173.715 360.828 173.328 360.723 172.867 360.723C172.375 360.723 171.973 360.828 171.66 361.039C171.348 361.242 171.105 361.523 170.934 361.883C170.762 362.234 170.641 362.637 170.57 363.09C170.508 363.535 170.477 364.004 170.477 364.496V364.836C170.477 365.328 170.508 365.801 170.57 366.254C170.633 366.707 170.75 367.109 170.922 367.461C171.102 367.812 171.348 368.09 171.66 368.293C171.973 368.496 172.379 368.598 172.879 368.598ZM185.992 371.234C185.008 371.234 184.125 371.078 183.344 370.766C182.562 370.445 181.898 370.004 181.352 369.441C180.812 368.879 180.398 368.227 180.109 367.484C179.82 366.734 179.676 365.938 179.676 365.094V364.625C179.676 363.664 179.812 362.785 180.086 361.988C180.359 361.191 180.75 360.5 181.258 359.914C181.773 359.328 182.398 358.879 183.133 358.566C183.867 358.246 184.695 358.086 185.617 358.086C186.516 358.086 187.312 358.234 188.008 358.531C188.703 358.828 189.285 359.25 189.754 359.797C190.23 360.344 190.59 361 190.832 361.766C191.074 362.523 191.195 363.367 191.195 364.297V365.703H181.117V363.453H187.879V363.195C187.879 362.727 187.793 362.309 187.621 361.941C187.457 361.566 187.207 361.27 186.871 361.051C186.535 360.832 186.105 360.723 185.582 360.723C185.137 360.723 184.754 360.82 184.434 361.016C184.113 361.211 183.852 361.484 183.648 361.836C183.453 362.188 183.305 362.602 183.203 363.078C183.109 363.547 183.062 364.062 183.062 364.625V365.094C183.062 365.602 183.133 366.07 183.273 366.5C183.422 366.93 183.629 367.301 183.895 367.613C184.168 367.926 184.496 368.168 184.879 368.34C185.27 368.512 185.711 368.598 186.203 368.598C186.812 368.598 187.379 368.48 187.902 368.246C188.434 368.004 188.891 367.641 189.273 367.156L190.914 368.938C190.648 369.32 190.285 369.688 189.824 370.039C189.371 370.391 188.824 370.68 188.184 370.906C187.543 371.125 186.812 371.234 185.992 371.234ZM196.68 353V371H193.293V353H196.68ZM198.93 364.789V364.543C198.93 363.613 199.062 362.758 199.328 361.977C199.594 361.188 199.98 360.504 200.488 359.926C200.996 359.348 201.621 358.898 202.363 358.578C203.105 358.25 203.957 358.086 204.918 358.086C205.879 358.086 206.734 358.25 207.484 358.578C208.234 358.898 208.863 359.348 209.371 359.926C209.887 360.504 210.277 361.188 210.543 361.977C210.809 362.758 210.941 363.613 210.941 364.543V364.789C210.941 365.711 210.809 366.566 210.543 367.355C210.277 368.137 209.887 368.82 209.371 369.406C208.863 369.984 208.238 370.434 207.496 370.754C206.754 371.074 205.902 371.234 204.941 371.234C203.98 371.234 203.125 371.074 202.375 370.754C201.633 370.434 201.004 369.984 200.488 369.406C199.98 368.82 199.594 368.137 199.328 367.355C199.062 366.566 198.93 365.711 198.93 364.789ZM202.305 364.543V364.789C202.305 365.32 202.352 365.816 202.445 366.277C202.539 366.738 202.688 367.145 202.891 367.496C203.102 367.84 203.375 368.109 203.711 368.305C204.047 368.5 204.457 368.598 204.941 368.598C205.41 368.598 205.812 368.5 206.148 368.305C206.484 368.109 206.754 367.84 206.957 367.496C207.16 367.145 207.309 366.738 207.402 366.277C207.504 365.816 207.555 365.32 207.555 364.789V364.543C207.555 364.027 207.504 363.543 207.402 363.09C207.309 362.629 207.156 362.223 206.945 361.871C206.742 361.512 206.473 361.23 206.137 361.027C205.801 360.824 205.395 360.723 204.918 360.723C204.441 360.723 204.035 360.824 203.699 361.027C203.371 361.23 203.102 361.512 202.891 361.871C202.688 362.223 202.539 362.629 202.445 363.09C202.352 363.543 202.305 364.027 202.305 364.543ZM216.32 361.027V371H212.945V358.32H216.109L216.32 361.027ZM215.828 364.215H214.914C214.914 363.277 215.035 362.434 215.277 361.684C215.52 360.926 215.859 360.281 216.297 359.75C216.734 359.211 217.254 358.801 217.855 358.52C218.465 358.23 219.145 358.086 219.895 358.086C220.488 358.086 221.031 358.172 221.523 358.344C222.016 358.516 222.438 358.789 222.789 359.164C223.148 359.539 223.422 360.035 223.609 360.652C223.805 361.27 223.902 362.023 223.902 362.914V371H220.504V362.902C220.504 362.34 220.426 361.902 220.27 361.59C220.113 361.277 219.883 361.059 219.578 360.934C219.281 360.801 218.914 360.734 218.477 360.734C218.023 360.734 217.629 360.824 217.293 361.004C216.965 361.184 216.691 361.434 216.473 361.754C216.262 362.066 216.102 362.434 215.992 362.855C215.883 363.277 215.828 363.73 215.828 364.215ZM233.312 368.141V362.492C233.312 362.086 233.246 361.738 233.113 361.449C232.98 361.152 232.773 360.922 232.492 360.758C232.219 360.594 231.863 360.512 231.426 360.512C231.051 360.512 230.727 360.578 230.453 360.711C230.18 360.836 229.969 361.02 229.82 361.262C229.672 361.496 229.598 361.773 229.598 362.094H226.223C226.223 361.555 226.348 361.043 226.598 360.559C226.848 360.074 227.211 359.648 227.688 359.281C228.164 358.906 228.73 358.613 229.387 358.402C230.051 358.191 230.793 358.086 231.613 358.086C232.598 358.086 233.473 358.25 234.238 358.578C235.004 358.906 235.605 359.398 236.043 360.055C236.488 360.711 236.711 361.531 236.711 362.516V367.941C236.711 368.637 236.754 369.207 236.84 369.652C236.926 370.09 237.051 370.473 237.215 370.801V371H233.805C233.641 370.656 233.516 370.227 233.43 369.711C233.352 369.188 233.312 368.664 233.312 368.141ZM233.758 363.277L233.781 365.188H231.895C231.449 365.188 231.062 365.238 230.734 365.34C230.406 365.441 230.137 365.586 229.926 365.773C229.715 365.953 229.559 366.164 229.457 366.406C229.363 366.648 229.316 366.914 229.316 367.203C229.316 367.492 229.383 367.754 229.516 367.988C229.648 368.215 229.84 368.395 230.09 368.527C230.34 368.652 230.633 368.715 230.969 368.715C231.477 368.715 231.918 368.613 232.293 368.41C232.668 368.207 232.957 367.957 233.16 367.66C233.371 367.363 233.48 367.082 233.488 366.816L234.379 368.246C234.254 368.566 234.082 368.898 233.863 369.242C233.652 369.586 233.383 369.91 233.055 370.215C232.727 370.512 232.332 370.758 231.871 370.953C231.41 371.141 230.863 371.234 230.23 371.234C229.426 371.234 228.695 371.074 228.039 370.754C227.391 370.426 226.875 369.977 226.492 369.406C226.117 368.828 225.93 368.172 225.93 367.438C225.93 366.773 226.055 366.184 226.305 365.668C226.555 365.152 226.922 364.719 227.406 364.367C227.898 364.008 228.512 363.738 229.246 363.559C229.98 363.371 230.832 363.277 231.801 363.277H233.758Z" fill="black"/>
<path d="M29.4854 389.203H33.7217C34.6826 389.203 35.4941 389.35 36.1562 389.643C36.8242 389.936 37.3311 390.369 37.6768 390.943C38.0283 391.512 38.2041 392.212 38.2041 393.044C38.2041 393.63 38.084 394.166 37.8438 394.652C37.6094 395.133 37.2695 395.543 36.8242 395.883C36.3848 396.217 35.8574 396.466 35.2422 396.63L34.7676 396.814H30.7861L30.7686 395.435H33.7744C34.3838 395.435 34.8906 395.329 35.2949 395.118C35.6992 394.901 36.0039 394.611 36.209 394.248C36.4141 393.885 36.5166 393.483 36.5166 393.044C36.5166 392.552 36.4199 392.121 36.2266 391.752C36.0332 391.383 35.7285 391.099 35.3125 390.899C34.9023 390.694 34.3721 390.592 33.7217 390.592H31.1816V402H29.4854V389.203ZM36.9648 402L33.8535 396.199L35.6201 396.19L38.7754 401.895V402H36.9648ZM44.2773 402.176C43.6152 402.176 43.0146 402.064 42.4756 401.842C41.9424 401.613 41.4824 401.294 41.0957 400.884C40.7148 400.474 40.4219 399.987 40.2168 399.425C40.0117 398.862 39.9092 398.247 39.9092 397.579V397.21C39.9092 396.437 40.0234 395.748 40.252 395.145C40.4805 394.535 40.791 394.02 41.1836 393.598C41.5762 393.176 42.0215 392.856 42.5195 392.64C43.0176 392.423 43.5332 392.314 44.0664 392.314C44.7461 392.314 45.332 392.432 45.8242 392.666C46.3223 392.9 46.7295 393.229 47.0459 393.65C47.3623 394.066 47.5967 394.559 47.749 395.127C47.9014 395.689 47.9775 396.305 47.9775 396.973V397.702H40.876V396.375H46.3516V396.252C46.3281 395.83 46.2402 395.42 46.0879 395.021C45.9414 394.623 45.707 394.295 45.3848 394.037C45.0625 393.779 44.623 393.65 44.0664 393.65C43.6973 393.65 43.3574 393.729 43.0469 393.888C42.7363 394.04 42.4697 394.269 42.2471 394.573C42.0244 394.878 41.8516 395.25 41.7285 395.689C41.6055 396.129 41.5439 396.636 41.5439 397.21V397.579C41.5439 398.03 41.6055 398.455 41.7285 398.854C41.8574 399.246 42.042 399.592 42.2822 399.891C42.5283 400.189 42.8242 400.424 43.1699 400.594C43.5215 400.764 43.9199 400.849 44.3652 400.849C44.9395 400.849 45.4258 400.731 45.8242 400.497C46.2227 400.263 46.5713 399.949 46.8701 399.557L47.8545 400.339C47.6494 400.649 47.3887 400.945 47.0723 401.227C46.7559 401.508 46.3662 401.736 45.9033 401.912C45.4463 402.088 44.9043 402.176 44.2773 402.176ZM55.4131 399.478C55.4131 399.243 55.3604 399.026 55.2549 398.827C55.1553 398.622 54.9473 398.438 54.6309 398.273C54.3203 398.104 53.8516 397.957 53.2246 397.834C52.6973 397.723 52.2197 397.591 51.792 397.438C51.3701 397.286 51.0098 397.102 50.7109 396.885C50.418 396.668 50.1924 396.413 50.0342 396.12C49.876 395.827 49.7969 395.484 49.7969 395.092C49.7969 394.717 49.8789 394.362 50.043 394.028C50.2129 393.694 50.4502 393.398 50.7549 393.141C51.0654 392.883 51.4375 392.681 51.8711 392.534C52.3047 392.388 52.7881 392.314 53.3213 392.314C54.083 392.314 54.7334 392.449 55.2725 392.719C55.8115 392.988 56.2246 393.349 56.5117 393.8C56.7988 394.245 56.9424 394.74 56.9424 395.285H55.3164C55.3164 395.021 55.2373 394.767 55.0791 394.521C54.9268 394.269 54.7012 394.061 54.4023 393.896C54.1094 393.732 53.749 393.65 53.3213 393.65C52.8701 393.65 52.5039 393.721 52.2227 393.861C51.9473 393.996 51.7451 394.169 51.6162 394.38C51.4932 394.591 51.4316 394.813 51.4316 395.048C51.4316 395.224 51.4609 395.382 51.5195 395.522C51.584 395.657 51.6953 395.783 51.8535 395.9C52.0117 396.012 52.2344 396.117 52.5215 396.217C52.8086 396.316 53.1748 396.416 53.6201 396.516C54.3994 396.691 55.041 396.902 55.5449 397.148C56.0488 397.395 56.4238 397.696 56.6699 398.054C56.916 398.411 57.0391 398.845 57.0391 399.354C57.0391 399.771 56.9512 400.151 56.7754 400.497C56.6055 400.843 56.3564 401.142 56.0283 401.394C55.7061 401.64 55.3193 401.833 54.8682 401.974C54.4229 402.108 53.9219 402.176 53.3652 402.176C52.5273 402.176 51.8184 402.026 51.2383 401.728C50.6582 401.429 50.2188 401.042 49.9199 400.567C49.6211 400.093 49.4717 399.592 49.4717 399.064H51.1064C51.1299 399.51 51.2588 399.864 51.4932 400.128C51.7275 400.386 52.0146 400.57 52.3545 400.682C52.6943 400.787 53.0312 400.84 53.3652 400.84C53.8105 400.84 54.1826 400.781 54.4814 400.664C54.7861 400.547 55.0176 400.386 55.1758 400.181C55.334 399.976 55.4131 399.741 55.4131 399.478ZM63.1211 402.176C62.459 402.176 61.8584 402.064 61.3193 401.842C60.7861 401.613 60.3262 401.294 59.9395 400.884C59.5586 400.474 59.2656 399.987 59.0605 399.425C58.8555 398.862 58.7529 398.247 58.7529 397.579V397.21C58.7529 396.437 58.8672 395.748 59.0957 395.145C59.3242 394.535 59.6348 394.02 60.0273 393.598C60.4199 393.176 60.8652 392.856 61.3633 392.64C61.8613 392.423 62.377 392.314 62.9102 392.314C63.5898 392.314 64.1758 392.432 64.668 392.666C65.166 392.9 65.5732 393.229 65.8896 393.65C66.2061 394.066 66.4404 394.559 66.5928 395.127C66.7451 395.689 66.8213 396.305 66.8213 396.973V397.702H59.7197V396.375H65.1953V396.252C65.1719 395.83 65.084 395.42 64.9316 395.021C64.7852 394.623 64.5508 394.295 64.2285 394.037C63.9062 393.779 63.4668 393.65 62.9102 393.65C62.541 393.65 62.2012 393.729 61.8906 393.888C61.5801 394.04 61.3135 394.269 61.0908 394.573C60.8682 394.878 60.6953 395.25 60.5723 395.689C60.4492 396.129 60.3877 396.636 60.3877 397.21V397.579C60.3877 398.03 60.4492 398.455 60.5723 398.854C60.7012 399.246 60.8857 399.592 61.126 399.891C61.3721 400.189 61.668 400.424 62.0137 400.594C62.3652 400.764 62.7637 400.849 63.209 400.849C63.7832 400.849 64.2695 400.731 64.668 400.497C65.0664 400.263 65.415 399.949 65.7139 399.557L66.6982 400.339C66.4932 400.649 66.2324 400.945 65.916 401.227C65.5996 401.508 65.21 401.736 64.7471 401.912C64.29 402.088 63.748 402.176 63.1211 402.176ZM70.3457 393.984V402H68.7197V392.49H70.3018L70.3457 393.984ZM73.3164 392.438L73.3076 393.949C73.1729 393.92 73.0439 393.902 72.9209 393.896C72.8037 393.885 72.6689 393.879 72.5166 393.879C72.1416 393.879 71.8105 393.938 71.5234 394.055C71.2363 394.172 70.9932 394.336 70.7939 394.547C70.5947 394.758 70.4365 395.01 70.3193 395.303C70.208 395.59 70.1348 395.906 70.0996 396.252L69.6426 396.516C69.6426 395.941 69.6982 395.402 69.8096 394.898C69.9268 394.395 70.1055 393.949 70.3457 393.562C70.5859 393.17 70.8906 392.865 71.2598 392.648C71.6348 392.426 72.0801 392.314 72.5957 392.314C72.7129 392.314 72.8477 392.329 73 392.358C73.1523 392.382 73.2578 392.408 73.3164 392.438ZM77.8691 400.532L80.4707 392.49H82.1318L78.7129 402H77.623L77.8691 400.532ZM75.6982 392.49L78.3789 400.576L78.5635 402H77.4736L74.0283 392.49H75.6982ZM89.1631 400.374V395.479C89.1631 395.104 89.0869 394.778 88.9346 394.503C88.7881 394.222 88.5654 394.005 88.2666 393.853C87.9678 393.7 87.5986 393.624 87.1592 393.624C86.749 393.624 86.3887 393.694 86.0781 393.835C85.7734 393.976 85.5332 394.16 85.3574 394.389C85.1875 394.617 85.1025 394.863 85.1025 395.127H83.4766C83.4766 394.787 83.5645 394.45 83.7402 394.116C83.916 393.782 84.168 393.48 84.4961 393.211C84.8301 392.936 85.2285 392.719 85.6914 392.561C86.1602 392.396 86.6816 392.314 87.2559 392.314C87.9473 392.314 88.5566 392.432 89.084 392.666C89.6172 392.9 90.0332 393.255 90.332 393.729C90.6367 394.198 90.7891 394.787 90.7891 395.496V399.926C90.7891 400.242 90.8154 400.579 90.8682 400.937C90.9268 401.294 91.0117 401.602 91.123 401.859V402H89.4268C89.3447 401.812 89.2803 401.563 89.2334 401.253C89.1865 400.937 89.1631 400.644 89.1631 400.374ZM89.4443 396.234L89.4619 397.377H87.8184C87.3555 397.377 86.9424 397.415 86.5791 397.491C86.2158 397.562 85.9111 397.67 85.665 397.816C85.4189 397.963 85.2314 398.147 85.1025 398.37C84.9736 398.587 84.9092 398.842 84.9092 399.135C84.9092 399.434 84.9766 399.706 85.1113 399.952C85.2461 400.198 85.4482 400.395 85.7178 400.541C85.9932 400.682 86.3301 400.752 86.7285 400.752C87.2266 400.752 87.666 400.646 88.0469 400.436C88.4277 400.225 88.7295 399.967 88.9521 399.662C89.1807 399.357 89.3037 399.062 89.3213 398.774L90.0156 399.557C89.9746 399.803 89.8633 400.075 89.6816 400.374C89.5 400.673 89.2568 400.96 88.9521 401.235C88.6533 401.505 88.2959 401.73 87.8799 401.912C87.4697 402.088 87.0068 402.176 86.4912 402.176C85.8467 402.176 85.2812 402.05 84.7949 401.798C84.3145 401.546 83.9395 401.209 83.6699 400.787C83.4062 400.359 83.2744 399.882 83.2744 399.354C83.2744 398.845 83.374 398.396 83.5732 398.01C83.7725 397.617 84.0596 397.292 84.4346 397.034C84.8096 396.771 85.2607 396.571 85.7881 396.437C86.3154 396.302 86.9043 396.234 87.5547 396.234H89.4443ZM97.3281 392.49V393.738H92.1865V392.49H97.3281ZM93.9268 390.179H95.5527V399.645C95.5527 399.967 95.6025 400.21 95.7021 400.374C95.8018 400.538 95.9307 400.646 96.0889 400.699C96.2471 400.752 96.417 400.778 96.5986 400.778C96.7334 400.778 96.874 400.767 97.0205 400.743C97.1729 400.714 97.2871 400.69 97.3633 400.673L97.3721 402C97.2432 402.041 97.0732 402.079 96.8623 402.114C96.6572 402.155 96.4082 402.176 96.1152 402.176C95.7168 402.176 95.3506 402.097 95.0166 401.938C94.6826 401.78 94.416 401.517 94.2168 401.147C94.0234 400.772 93.9268 400.269 93.9268 399.636V390.179ZM101.002 392.49V402H99.3672V392.49H101.002ZM99.2441 389.968C99.2441 389.704 99.3232 389.481 99.4814 389.3C99.6455 389.118 99.8857 389.027 100.202 389.027C100.513 389.027 100.75 389.118 100.914 389.3C101.084 389.481 101.169 389.704 101.169 389.968C101.169 390.22 101.084 390.437 100.914 390.618C100.75 390.794 100.513 390.882 100.202 390.882C99.8857 390.882 99.6455 390.794 99.4814 390.618C99.3232 390.437 99.2441 390.22 99.2441 389.968ZM103.182 397.351V397.148C103.182 396.463 103.281 395.827 103.48 395.241C103.68 394.649 103.967 394.137 104.342 393.703C104.717 393.264 105.171 392.924 105.704 392.684C106.237 392.438 106.835 392.314 107.497 392.314C108.165 392.314 108.766 392.438 109.299 392.684C109.838 392.924 110.295 393.264 110.67 393.703C111.051 394.137 111.341 394.649 111.54 395.241C111.739 395.827 111.839 396.463 111.839 397.148V397.351C111.839 398.036 111.739 398.672 111.54 399.258C111.341 399.844 111.051 400.356 110.67 400.796C110.295 401.229 109.841 401.569 109.308 401.815C108.78 402.056 108.183 402.176 107.515 402.176C106.847 402.176 106.246 402.056 105.713 401.815C105.18 401.569 104.723 401.229 104.342 400.796C103.967 400.356 103.68 399.844 103.48 399.258C103.281 398.672 103.182 398.036 103.182 397.351ZM104.808 397.148V397.351C104.808 397.825 104.863 398.273 104.975 398.695C105.086 399.111 105.253 399.48 105.476 399.803C105.704 400.125 105.988 400.38 106.328 400.567C106.668 400.749 107.063 400.84 107.515 400.84C107.96 400.84 108.35 400.749 108.684 400.567C109.023 400.38 109.305 400.125 109.527 399.803C109.75 399.48 109.917 399.111 110.028 398.695C110.146 398.273 110.204 397.825 110.204 397.351V397.148C110.204 396.68 110.146 396.237 110.028 395.821C109.917 395.399 109.747 395.027 109.519 394.705C109.296 394.377 109.015 394.119 108.675 393.932C108.341 393.744 107.948 393.65 107.497 393.65C107.052 393.65 106.659 393.744 106.319 393.932C105.985 394.119 105.704 394.377 105.476 394.705C105.253 395.027 105.086 395.399 104.975 395.821C104.863 396.237 104.808 396.68 104.808 397.148ZM115.504 394.521V402H113.878V392.49H115.416L115.504 394.521ZM115.117 396.885L114.44 396.858C114.446 396.208 114.543 395.607 114.73 395.057C114.918 394.5 115.182 394.017 115.521 393.606C115.861 393.196 116.266 392.88 116.734 392.657C117.209 392.429 117.733 392.314 118.308 392.314C118.776 392.314 119.198 392.379 119.573 392.508C119.948 392.631 120.268 392.83 120.531 393.105C120.801 393.381 121.006 393.738 121.146 394.178C121.287 394.611 121.357 395.142 121.357 395.769V402H119.723V395.751C119.723 395.253 119.649 394.854 119.503 394.556C119.356 394.251 119.143 394.031 118.861 393.896C118.58 393.756 118.234 393.686 117.824 393.686C117.42 393.686 117.051 393.771 116.717 393.94C116.389 394.11 116.104 394.345 115.864 394.644C115.63 394.942 115.445 395.285 115.311 395.672C115.182 396.053 115.117 396.457 115.117 396.885ZM129.918 394.521V402H128.292V392.49H129.83L129.918 394.521ZM129.531 396.885L128.854 396.858C128.86 396.208 128.957 395.607 129.145 395.057C129.332 394.5 129.596 394.017 129.936 393.606C130.275 393.196 130.68 392.88 131.148 392.657C131.623 392.429 132.147 392.314 132.722 392.314C133.19 392.314 133.612 392.379 133.987 392.508C134.362 392.631 134.682 392.83 134.945 393.105C135.215 393.381 135.42 393.738 135.561 394.178C135.701 394.611 135.771 395.142 135.771 395.769V402H134.137V395.751C134.137 395.253 134.063 394.854 133.917 394.556C133.771 394.251 133.557 394.031 133.275 393.896C132.994 393.756 132.648 393.686 132.238 393.686C131.834 393.686 131.465 393.771 131.131 393.94C130.803 394.11 130.519 394.345 130.278 394.644C130.044 394.942 129.859 395.285 129.725 395.672C129.596 396.053 129.531 396.457 129.531 396.885ZM144.06 399.803V392.49H145.694V402H144.139L144.06 399.803ZM144.367 397.799L145.044 397.781C145.044 398.414 144.977 399 144.842 399.539C144.713 400.072 144.502 400.535 144.209 400.928C143.916 401.32 143.532 401.628 143.058 401.851C142.583 402.067 142.006 402.176 141.326 402.176C140.863 402.176 140.438 402.108 140.052 401.974C139.671 401.839 139.343 401.631 139.067 401.35C138.792 401.068 138.578 400.702 138.426 400.251C138.279 399.8 138.206 399.258 138.206 398.625V392.49H139.832V398.643C139.832 399.07 139.879 399.425 139.973 399.706C140.072 399.981 140.204 400.201 140.368 400.365C140.538 400.523 140.726 400.635 140.931 400.699C141.142 400.764 141.358 400.796 141.581 400.796C142.272 400.796 142.82 400.664 143.225 400.4C143.629 400.131 143.919 399.771 144.095 399.319C144.276 398.862 144.367 398.355 144.367 397.799ZM149.79 394.38V402H148.155V392.49H149.702L149.79 394.38ZM149.456 396.885L148.7 396.858C148.706 396.208 148.791 395.607 148.955 395.057C149.119 394.5 149.362 394.017 149.685 393.606C150.007 393.196 150.408 392.88 150.889 392.657C151.369 392.429 151.926 392.314 152.559 392.314C153.004 392.314 153.414 392.379 153.789 392.508C154.164 392.631 154.489 392.827 154.765 393.097C155.04 393.366 155.254 393.712 155.406 394.134C155.559 394.556 155.635 395.065 155.635 395.663V402H154.009V395.742C154.009 395.244 153.924 394.846 153.754 394.547C153.59 394.248 153.355 394.031 153.051 393.896C152.746 393.756 152.389 393.686 151.979 393.686C151.498 393.686 151.097 393.771 150.774 393.94C150.452 394.11 150.194 394.345 150.001 394.644C149.808 394.942 149.667 395.285 149.579 395.672C149.497 396.053 149.456 396.457 149.456 396.885ZM155.617 395.988L154.527 396.322C154.533 395.801 154.618 395.3 154.782 394.819C154.952 394.339 155.195 393.911 155.512 393.536C155.834 393.161 156.229 392.865 156.698 392.648C157.167 392.426 157.703 392.314 158.307 392.314C158.816 392.314 159.268 392.382 159.66 392.517C160.059 392.651 160.393 392.859 160.662 393.141C160.938 393.416 161.146 393.771 161.286 394.204C161.427 394.638 161.497 395.153 161.497 395.751V402H159.862V395.733C159.862 395.2 159.777 394.787 159.607 394.494C159.443 394.195 159.209 393.987 158.904 393.87C158.605 393.747 158.248 393.686 157.832 393.686C157.475 393.686 157.158 393.747 156.883 393.87C156.607 393.993 156.376 394.163 156.188 394.38C156.001 394.591 155.857 394.834 155.758 395.109C155.664 395.385 155.617 395.678 155.617 395.988ZM163.949 388.5H165.584V400.154L165.443 402H163.949V388.5ZM172.009 397.166V397.351C172.009 398.042 171.927 398.684 171.763 399.275C171.599 399.861 171.358 400.371 171.042 400.805C170.726 401.238 170.339 401.575 169.882 401.815C169.425 402.056 168.9 402.176 168.309 402.176C167.705 402.176 167.175 402.073 166.718 401.868C166.267 401.657 165.886 401.355 165.575 400.963C165.265 400.57 165.016 400.096 164.828 399.539C164.646 398.982 164.521 398.355 164.45 397.658V396.85C164.521 396.146 164.646 395.517 164.828 394.96C165.016 394.403 165.265 393.929 165.575 393.536C165.886 393.138 166.267 392.836 166.718 392.631C167.169 392.42 167.693 392.314 168.291 392.314C168.889 392.314 169.419 392.432 169.882 392.666C170.345 392.895 170.731 393.223 171.042 393.65C171.358 394.078 171.599 394.591 171.763 395.188C171.927 395.78 172.009 396.439 172.009 397.166ZM170.374 397.351V397.166C170.374 396.691 170.33 396.246 170.242 395.83C170.154 395.408 170.014 395.039 169.82 394.723C169.627 394.4 169.372 394.148 169.056 393.967C168.739 393.779 168.35 393.686 167.887 393.686C167.477 393.686 167.119 393.756 166.814 393.896C166.516 394.037 166.261 394.228 166.05 394.468C165.839 394.702 165.666 394.972 165.531 395.276C165.402 395.575 165.306 395.886 165.241 396.208V398.326C165.335 398.736 165.487 399.132 165.698 399.513C165.915 399.888 166.202 400.195 166.56 400.436C166.923 400.676 167.371 400.796 167.904 400.796C168.344 400.796 168.719 400.708 169.029 400.532C169.346 400.351 169.601 400.102 169.794 399.785C169.993 399.469 170.14 399.103 170.233 398.687C170.327 398.271 170.374 397.825 170.374 397.351ZM178.012 402.176C177.35 402.176 176.749 402.064 176.21 401.842C175.677 401.613 175.217 401.294 174.83 400.884C174.449 400.474 174.156 399.987 173.951 399.425C173.746 398.862 173.644 398.247 173.644 397.579V397.21C173.644 396.437 173.758 395.748 173.986 395.145C174.215 394.535 174.525 394.02 174.918 393.598C175.311 393.176 175.756 392.856 176.254 392.64C176.752 392.423 177.268 392.314 177.801 392.314C178.48 392.314 179.066 392.432 179.559 392.666C180.057 392.9 180.464 393.229 180.78 393.65C181.097 394.066 181.331 394.559 181.483 395.127C181.636 395.689 181.712 396.305 181.712 396.973V397.702H174.61V396.375H180.086V396.252C180.062 395.83 179.975 395.42 179.822 395.021C179.676 394.623 179.441 394.295 179.119 394.037C178.797 393.779 178.357 393.65 177.801 393.65C177.432 393.65 177.092 393.729 176.781 393.888C176.471 394.04 176.204 394.269 175.981 394.573C175.759 394.878 175.586 395.25 175.463 395.689C175.34 396.129 175.278 396.636 175.278 397.21V397.579C175.278 398.03 175.34 398.455 175.463 398.854C175.592 399.246 175.776 399.592 176.017 399.891C176.263 400.189 176.559 400.424 176.904 400.594C177.256 400.764 177.654 400.849 178.1 400.849C178.674 400.849 179.16 400.731 179.559 400.497C179.957 400.263 180.306 399.949 180.604 399.557L181.589 400.339C181.384 400.649 181.123 400.945 180.807 401.227C180.49 401.508 180.101 401.736 179.638 401.912C179.181 402.088 178.639 402.176 178.012 402.176ZM185.236 393.984V402H183.61V392.49H185.192L185.236 393.984ZM188.207 392.438L188.198 393.949C188.063 393.92 187.935 393.902 187.812 393.896C187.694 393.885 187.56 393.879 187.407 393.879C187.032 393.879 186.701 393.938 186.414 394.055C186.127 394.172 185.884 394.336 185.685 394.547C185.485 394.758 185.327 395.01 185.21 395.303C185.099 395.59 185.025 395.906 184.99 396.252L184.533 396.516C184.533 395.941 184.589 395.402 184.7 394.898C184.817 394.395 184.996 393.949 185.236 393.562C185.477 393.17 185.781 392.865 186.15 392.648C186.525 392.426 186.971 392.314 187.486 392.314C187.604 392.314 187.738 392.329 187.891 392.358C188.043 392.382 188.148 392.408 188.207 392.438ZM189.64 401.139C189.64 400.863 189.725 400.632 189.895 400.444C190.07 400.251 190.322 400.154 190.65 400.154C190.979 400.154 191.228 400.251 191.397 400.444C191.573 400.632 191.661 400.863 191.661 401.139C191.661 401.408 191.573 401.637 191.397 401.824C191.228 402.012 190.979 402.105 190.65 402.105C190.322 402.105 190.07 402.012 189.895 401.824C189.725 401.637 189.64 401.408 189.64 401.139ZM189.648 393.378C189.648 393.103 189.733 392.871 189.903 392.684C190.079 392.49 190.331 392.394 190.659 392.394C190.987 392.394 191.236 392.49 191.406 392.684C191.582 392.871 191.67 393.103 191.67 393.378C191.67 393.647 191.582 393.876 191.406 394.063C191.236 394.251 190.987 394.345 190.659 394.345C190.331 394.345 190.079 394.251 189.903 394.063C189.733 393.876 189.648 393.647 189.648 393.378ZM202.146 398.133L204.687 389.203H205.917L205.205 392.675L202.472 402H201.25L202.146 398.133ZM199.519 389.203L201.54 397.957L202.146 402H200.934L197.831 389.203H199.519ZM209.204 397.948L211.182 389.203H212.878L209.784 402H208.571L209.204 397.948ZM206.102 389.203L208.571 398.133L209.468 402H208.246L205.609 392.675L204.889 389.203H206.102ZM222.52 400.62V402H216.121V400.62H222.52ZM216.455 389.203V402H214.759V389.203H216.455ZM225.657 400.638H225.824C226.762 400.638 227.523 400.506 228.109 400.242C228.695 399.979 229.146 399.624 229.463 399.179C229.779 398.733 229.996 398.232 230.113 397.676C230.23 397.113 230.289 396.536 230.289 395.944V393.984C230.289 393.404 230.222 392.889 230.087 392.438C229.958 391.986 229.776 391.608 229.542 391.304C229.313 390.999 229.053 390.768 228.76 390.609C228.467 390.451 228.156 390.372 227.828 390.372C227.453 390.372 227.116 390.448 226.817 390.601C226.524 390.747 226.275 390.955 226.07 391.225C225.871 391.494 225.719 391.811 225.613 392.174C225.508 392.537 225.455 392.933 225.455 393.36C225.455 393.741 225.502 394.11 225.596 394.468C225.689 394.825 225.833 395.147 226.026 395.435C226.22 395.722 226.46 395.95 226.747 396.12C227.04 396.284 227.383 396.366 227.775 396.366C228.139 396.366 228.479 396.296 228.795 396.155C229.117 396.009 229.401 395.812 229.647 395.566C229.899 395.314 230.099 395.03 230.245 394.714C230.397 394.397 230.485 394.066 230.509 393.721H231.282C231.282 394.207 231.186 394.688 230.992 395.162C230.805 395.631 230.541 396.059 230.201 396.445C229.861 396.832 229.463 397.143 229.006 397.377C228.549 397.605 228.051 397.72 227.512 397.72C226.879 397.72 226.331 397.597 225.868 397.351C225.405 397.104 225.024 396.776 224.726 396.366C224.433 395.956 224.213 395.499 224.066 394.995C223.926 394.485 223.855 393.97 223.855 393.448C223.855 392.839 223.94 392.268 224.11 391.734C224.28 391.201 224.532 390.732 224.866 390.328C225.2 389.918 225.613 389.599 226.105 389.37C226.604 389.142 227.178 389.027 227.828 389.027C228.561 389.027 229.185 389.174 229.7 389.467C230.216 389.76 230.635 390.152 230.957 390.645C231.285 391.137 231.525 391.69 231.678 392.306C231.83 392.921 231.906 393.554 231.906 394.204V394.793C231.906 395.455 231.862 396.129 231.774 396.814C231.692 397.494 231.531 398.145 231.291 398.766C231.057 399.387 230.714 399.943 230.263 400.436C229.812 400.922 229.223 401.309 228.496 401.596C227.775 401.877 226.885 402.018 225.824 402.018H225.657V400.638ZM240.405 389.186H240.546V390.565H240.405C239.544 390.565 238.823 390.706 238.243 390.987C237.663 391.263 237.203 391.635 236.863 392.104C236.523 392.566 236.277 393.088 236.125 393.668C235.979 394.248 235.905 394.837 235.905 395.435V397.315C235.905 397.884 235.973 398.388 236.107 398.827C236.242 399.261 236.427 399.627 236.661 399.926C236.896 400.225 237.159 400.45 237.452 400.603C237.751 400.755 238.062 400.831 238.384 400.831C238.759 400.831 239.093 400.761 239.386 400.62C239.679 400.474 239.925 400.271 240.124 400.014C240.329 399.75 240.484 399.439 240.59 399.082C240.695 398.725 240.748 398.332 240.748 397.904C240.748 397.523 240.701 397.157 240.607 396.806C240.514 396.448 240.37 396.132 240.177 395.856C239.983 395.575 239.74 395.355 239.447 395.197C239.16 395.033 238.817 394.951 238.419 394.951C237.968 394.951 237.546 395.062 237.153 395.285C236.767 395.502 236.447 395.789 236.195 396.146C235.949 396.498 235.809 396.882 235.773 397.298L234.912 397.289C234.994 396.633 235.146 396.073 235.369 395.61C235.598 395.142 235.879 394.761 236.213 394.468C236.553 394.169 236.931 393.952 237.347 393.817C237.769 393.677 238.214 393.606 238.683 393.606C239.321 393.606 239.872 393.727 240.335 393.967C240.798 394.207 241.179 394.529 241.478 394.934C241.776 395.332 241.996 395.783 242.137 396.287C242.283 396.785 242.356 397.298 242.356 397.825C242.356 398.429 242.271 398.994 242.102 399.521C241.932 400.049 241.677 400.512 241.337 400.91C241.003 401.309 240.59 401.619 240.098 401.842C239.605 402.064 239.034 402.176 238.384 402.176C237.692 402.176 237.089 402.035 236.573 401.754C236.058 401.467 235.63 401.086 235.29 400.611C234.95 400.137 234.695 399.609 234.525 399.029C234.355 398.449 234.271 397.86 234.271 397.263V396.498C234.271 395.596 234.361 394.711 234.543 393.844C234.725 392.977 235.038 392.191 235.483 391.488C235.935 390.785 236.559 390.226 237.355 389.81C238.152 389.394 239.169 389.186 240.405 389.186ZM246.663 394.802H247.823C248.392 394.802 248.86 394.708 249.229 394.521C249.604 394.327 249.883 394.066 250.064 393.738C250.252 393.404 250.346 393.029 250.346 392.613C250.346 392.121 250.264 391.708 250.1 391.374C249.936 391.04 249.689 390.788 249.361 390.618C249.033 390.448 248.617 390.363 248.113 390.363C247.656 390.363 247.252 390.454 246.9 390.636C246.555 390.812 246.282 391.063 246.083 391.392C245.89 391.72 245.793 392.106 245.793 392.552H244.167C244.167 391.901 244.331 391.31 244.659 390.776C244.987 390.243 245.447 389.818 246.039 389.502C246.637 389.186 247.328 389.027 248.113 389.027C248.887 389.027 249.563 389.165 250.144 389.44C250.724 389.71 251.175 390.114 251.497 390.653C251.819 391.187 251.98 391.852 251.98 392.648C251.98 392.971 251.904 393.316 251.752 393.686C251.605 394.049 251.374 394.389 251.058 394.705C250.747 395.021 250.343 395.282 249.845 395.487C249.347 395.687 248.749 395.786 248.052 395.786H246.663V394.802ZM246.663 396.138V395.162H248.052C248.866 395.162 249.54 395.259 250.073 395.452C250.606 395.646 251.025 395.903 251.33 396.226C251.641 396.548 251.857 396.902 251.98 397.289C252.109 397.67 252.174 398.051 252.174 398.432C252.174 399.029 252.071 399.56 251.866 400.022C251.667 400.485 251.383 400.878 251.014 401.2C250.65 401.522 250.223 401.766 249.73 401.93C249.238 402.094 248.702 402.176 248.122 402.176C247.565 402.176 247.041 402.097 246.549 401.938C246.062 401.78 245.632 401.552 245.257 401.253C244.882 400.948 244.589 400.576 244.378 400.137C244.167 399.691 244.062 399.185 244.062 398.616H245.688C245.688 399.062 245.784 399.451 245.978 399.785C246.177 400.119 246.458 400.38 246.821 400.567C247.19 400.749 247.624 400.84 248.122 400.84C248.62 400.84 249.048 400.755 249.405 400.585C249.769 400.409 250.047 400.146 250.24 399.794C250.439 399.442 250.539 399 250.539 398.467C250.539 397.934 250.428 397.497 250.205 397.157C249.982 396.812 249.666 396.557 249.256 396.393C248.852 396.223 248.374 396.138 247.823 396.138H246.663ZM262.8 400.664V402H254.424V400.831L258.616 396.164C259.132 395.59 259.53 395.104 259.812 394.705C260.099 394.301 260.298 393.94 260.409 393.624C260.526 393.302 260.585 392.974 260.585 392.64C260.585 392.218 260.497 391.837 260.321 391.497C260.151 391.151 259.899 390.876 259.565 390.671C259.231 390.466 258.827 390.363 258.353 390.363C257.784 390.363 257.31 390.475 256.929 390.697C256.554 390.914 256.272 391.219 256.085 391.611C255.897 392.004 255.804 392.455 255.804 392.965H254.178C254.178 392.244 254.336 391.585 254.652 390.987C254.969 390.39 255.438 389.915 256.059 389.563C256.68 389.206 257.444 389.027 258.353 389.027C259.161 389.027 259.853 389.171 260.427 389.458C261.001 389.739 261.44 390.138 261.745 390.653C262.056 391.163 262.211 391.761 262.211 392.446C262.211 392.821 262.146 393.202 262.018 393.589C261.895 393.97 261.722 394.351 261.499 394.731C261.282 395.112 261.027 395.487 260.734 395.856C260.447 396.226 260.14 396.589 259.812 396.946L256.384 400.664H262.8ZM266.597 395.909L265.296 395.575L265.938 389.203H272.503V390.706H267.317L266.931 394.187C267.165 394.052 267.461 393.926 267.818 393.809C268.182 393.691 268.598 393.633 269.066 393.633C269.658 393.633 270.188 393.735 270.657 393.94C271.126 394.14 271.524 394.427 271.853 394.802C272.187 395.177 272.441 395.628 272.617 396.155C272.793 396.683 272.881 397.271 272.881 397.922C272.881 398.537 272.796 399.103 272.626 399.618C272.462 400.134 272.213 400.585 271.879 400.972C271.545 401.353 271.123 401.648 270.613 401.859C270.109 402.07 269.515 402.176 268.829 402.176C268.313 402.176 267.824 402.105 267.361 401.965C266.904 401.818 266.494 401.599 266.131 401.306C265.773 401.007 265.48 400.638 265.252 400.198C265.029 399.753 264.889 399.231 264.83 398.634H266.377C266.447 399.114 266.588 399.519 266.799 399.847C267.01 400.175 267.285 400.424 267.625 400.594C267.971 400.758 268.372 400.84 268.829 400.84C269.216 400.84 269.559 400.772 269.857 400.638C270.156 400.503 270.408 400.31 270.613 400.058C270.818 399.806 270.974 399.501 271.079 399.144C271.19 398.786 271.246 398.385 271.246 397.939C271.246 397.535 271.19 397.16 271.079 396.814C270.968 396.469 270.801 396.167 270.578 395.909C270.361 395.651 270.095 395.452 269.778 395.312C269.462 395.165 269.099 395.092 268.688 395.092C268.144 395.092 267.73 395.165 267.449 395.312C267.174 395.458 266.89 395.657 266.597 395.909ZM283.313 397.693V399.029H274.067V398.071L279.798 389.203H281.125L279.701 391.77L275.913 397.693H283.313ZM281.529 389.203V402H279.903V389.203H281.529ZM290.134 389.133V402H288.508V391.163L285.229 392.358V390.891L289.879 389.133H290.134Z" fill="#807D7D"/>
<rect x="28" y="438" width="234" height="54" rx="8" fill="url(#paint0_linear_31_987)"/>
<path d="M62.3467 458.203H64.5791L67.8662 467.599L71.1533 458.203H73.3857L68.7627 471H66.9697L62.3467 458.203ZM61.1426 458.203H63.3662L63.7705 467.361V471H61.1426V458.203ZM72.3662 458.203H74.5986V471H71.9619V467.361L72.3662 458.203ZM81.8848 468.855V464.619C81.8848 464.314 81.835 464.054 81.7354 463.837C81.6357 463.614 81.4805 463.441 81.2695 463.318C81.0645 463.195 80.7979 463.134 80.4697 463.134C80.1885 463.134 79.9453 463.184 79.7402 463.283C79.5352 463.377 79.377 463.515 79.2656 463.696C79.1543 463.872 79.0986 464.08 79.0986 464.32H76.5674C76.5674 463.916 76.6611 463.532 76.8486 463.169C77.0361 462.806 77.3086 462.486 77.666 462.211C78.0234 461.93 78.4482 461.71 78.9404 461.552C79.4385 461.394 79.9951 461.314 80.6104 461.314C81.3486 461.314 82.0049 461.438 82.5791 461.684C83.1533 461.93 83.6045 462.299 83.9326 462.791C84.2666 463.283 84.4336 463.898 84.4336 464.637V468.706C84.4336 469.228 84.4658 469.655 84.5303 469.989C84.5947 470.317 84.6885 470.604 84.8115 470.851V471H82.2539C82.1309 470.742 82.0371 470.42 81.9727 470.033C81.9141 469.641 81.8848 469.248 81.8848 468.855ZM82.2188 465.208L82.2363 466.641H80.8213C80.4873 466.641 80.1973 466.679 79.9512 466.755C79.7051 466.831 79.5029 466.939 79.3447 467.08C79.1865 467.215 79.0693 467.373 78.9932 467.555C78.9229 467.736 78.8877 467.936 78.8877 468.152C78.8877 468.369 78.9375 468.565 79.0371 468.741C79.1367 468.911 79.2803 469.046 79.4678 469.146C79.6553 469.239 79.875 469.286 80.127 469.286C80.5078 469.286 80.8389 469.21 81.1201 469.058C81.4014 468.905 81.6182 468.718 81.7705 468.495C81.9287 468.272 82.0107 468.062 82.0166 467.862L82.6846 468.935C82.5908 469.175 82.4619 469.424 82.2979 469.682C82.1396 469.939 81.9375 470.183 81.6914 470.411C81.4453 470.634 81.1494 470.818 80.8037 470.965C80.458 471.105 80.0479 471.176 79.5732 471.176C78.9697 471.176 78.4219 471.056 77.9297 470.815C77.4434 470.569 77.0566 470.232 76.7695 469.805C76.4883 469.371 76.3477 468.879 76.3477 468.328C76.3477 467.83 76.4414 467.388 76.6289 467.001C76.8164 466.614 77.0918 466.289 77.4551 466.025C77.8242 465.756 78.2842 465.554 78.835 465.419C79.3857 465.278 80.0244 465.208 80.751 465.208H82.2188ZM88.8633 463.521V471H86.332V461.49H88.7051L88.8633 463.521ZM88.4941 465.911H87.8086C87.8086 465.208 87.8994 464.575 88.0811 464.013C88.2627 463.444 88.5176 462.961 88.8457 462.562C89.1738 462.158 89.5635 461.851 90.0146 461.64C90.4717 461.423 90.9814 461.314 91.5439 461.314C91.9893 461.314 92.3965 461.379 92.7656 461.508C93.1348 461.637 93.4512 461.842 93.7148 462.123C93.9844 462.404 94.1895 462.776 94.3301 463.239C94.4766 463.702 94.5498 464.268 94.5498 464.936V471H92.001V464.927C92.001 464.505 91.9424 464.177 91.8252 463.942C91.708 463.708 91.5352 463.544 91.3066 463.45C91.084 463.351 90.8086 463.301 90.4805 463.301C90.1406 463.301 89.8447 463.368 89.5928 463.503C89.3467 463.638 89.1416 463.825 88.9775 464.065C88.8193 464.3 88.6992 464.575 88.6172 464.892C88.5352 465.208 88.4941 465.548 88.4941 465.911ZM101.607 468.855V464.619C101.607 464.314 101.558 464.054 101.458 463.837C101.358 463.614 101.203 463.441 100.992 463.318C100.787 463.195 100.521 463.134 100.192 463.134C99.9111 463.134 99.668 463.184 99.4629 463.283C99.2578 463.377 99.0996 463.515 98.9883 463.696C98.877 463.872 98.8213 464.08 98.8213 464.32H96.29C96.29 463.916 96.3838 463.532 96.5713 463.169C96.7588 462.806 97.0312 462.486 97.3887 462.211C97.7461 461.93 98.1709 461.71 98.6631 461.552C99.1611 461.394 99.7178 461.314 100.333 461.314C101.071 461.314 101.728 461.438 102.302 461.684C102.876 461.93 103.327 462.299 103.655 462.791C103.989 463.283 104.156 463.898 104.156 464.637V468.706C104.156 469.228 104.188 469.655 104.253 469.989C104.317 470.317 104.411 470.604 104.534 470.851V471H101.977C101.854 470.742 101.76 470.42 101.695 470.033C101.637 469.641 101.607 469.248 101.607 468.855ZM101.941 465.208L101.959 466.641H100.544C100.21 466.641 99.9199 466.679 99.6738 466.755C99.4277 466.831 99.2256 466.939 99.0674 467.08C98.9092 467.215 98.792 467.373 98.7158 467.555C98.6455 467.736 98.6104 467.936 98.6104 468.152C98.6104 468.369 98.6602 468.565 98.7598 468.741C98.8594 468.911 99.0029 469.046 99.1904 469.146C99.3779 469.239 99.5977 469.286 99.8496 469.286C100.23 469.286 100.562 469.21 100.843 469.058C101.124 468.905 101.341 468.718 101.493 468.495C101.651 468.272 101.733 468.062 101.739 467.862L102.407 468.935C102.313 469.175 102.185 469.424 102.021 469.682C101.862 469.939 101.66 470.183 101.414 470.411C101.168 470.634 100.872 470.818 100.526 470.965C100.181 471.105 99.7705 471.176 99.2959 471.176C98.6924 471.176 98.1445 471.056 97.6523 470.815C97.166 470.569 96.7793 470.232 96.4922 469.805C96.2109 469.371 96.0703 468.879 96.0703 468.328C96.0703 467.83 96.1641 467.388 96.3516 467.001C96.5391 466.614 96.8145 466.289 97.1777 466.025C97.5469 465.756 98.0068 465.554 98.5576 465.419C99.1084 465.278 99.7471 465.208 100.474 465.208H101.941ZM112.128 461.49H114.422V470.684C114.422 471.551 114.229 472.286 113.842 472.89C113.461 473.499 112.928 473.959 112.242 474.27C111.557 474.586 110.76 474.744 109.852 474.744C109.453 474.744 109.031 474.691 108.586 474.586C108.146 474.48 107.725 474.316 107.32 474.094C106.922 473.871 106.588 473.59 106.318 473.25L107.435 471.756C107.728 472.096 108.067 472.359 108.454 472.547C108.841 472.74 109.269 472.837 109.737 472.837C110.194 472.837 110.581 472.752 110.897 472.582C111.214 472.418 111.457 472.175 111.627 471.853C111.797 471.536 111.882 471.152 111.882 470.701V463.688L112.128 461.49ZM105.729 466.359V466.175C105.729 465.448 105.817 464.789 105.993 464.197C106.175 463.6 106.43 463.087 106.758 462.659C107.092 462.231 107.496 461.9 107.971 461.666C108.445 461.432 108.981 461.314 109.579 461.314C110.212 461.314 110.742 461.432 111.17 461.666C111.598 461.9 111.949 462.234 112.225 462.668C112.5 463.096 112.714 463.603 112.866 464.188C113.024 464.769 113.147 465.404 113.235 466.096V466.5C113.147 467.162 113.016 467.777 112.84 468.346C112.664 468.914 112.433 469.412 112.146 469.84C111.858 470.262 111.501 470.59 111.073 470.824C110.651 471.059 110.147 471.176 109.562 471.176C108.976 471.176 108.445 471.056 107.971 470.815C107.502 470.575 107.101 470.238 106.767 469.805C106.433 469.371 106.175 468.861 105.993 468.275C105.817 467.689 105.729 467.051 105.729 466.359ZM108.261 466.175V466.359C108.261 466.752 108.299 467.118 108.375 467.458C108.451 467.798 108.568 468.1 108.727 468.363C108.891 468.621 109.093 468.823 109.333 468.97C109.579 469.11 109.869 469.181 110.203 469.181C110.666 469.181 111.044 469.084 111.337 468.891C111.63 468.691 111.85 468.419 111.996 468.073C112.143 467.728 112.228 467.329 112.251 466.878V465.727C112.239 465.357 112.189 465.026 112.102 464.733C112.014 464.435 111.891 464.18 111.732 463.969C111.574 463.758 111.369 463.594 111.117 463.477C110.865 463.359 110.566 463.301 110.221 463.301C109.887 463.301 109.597 463.377 109.351 463.529C109.11 463.676 108.908 463.878 108.744 464.136C108.586 464.394 108.466 464.698 108.384 465.05C108.302 465.396 108.261 465.771 108.261 466.175ZM120.768 471.176C120.029 471.176 119.367 471.059 118.781 470.824C118.195 470.584 117.697 470.253 117.287 469.831C116.883 469.409 116.572 468.92 116.355 468.363C116.139 467.801 116.03 467.203 116.03 466.57V466.219C116.03 465.498 116.133 464.839 116.338 464.241C116.543 463.644 116.836 463.125 117.217 462.686C117.604 462.246 118.072 461.909 118.623 461.675C119.174 461.435 119.795 461.314 120.486 461.314C121.16 461.314 121.758 461.426 122.279 461.648C122.801 461.871 123.237 462.188 123.589 462.598C123.946 463.008 124.216 463.5 124.397 464.074C124.579 464.643 124.67 465.275 124.67 465.973V467.027H117.111V465.34H122.183V465.146C122.183 464.795 122.118 464.481 121.989 464.206C121.866 463.925 121.679 463.702 121.427 463.538C121.175 463.374 120.853 463.292 120.46 463.292C120.126 463.292 119.839 463.365 119.599 463.512C119.358 463.658 119.162 463.863 119.01 464.127C118.863 464.391 118.752 464.701 118.676 465.059C118.605 465.41 118.57 465.797 118.57 466.219V466.57C118.57 466.951 118.623 467.303 118.729 467.625C118.84 467.947 118.995 468.226 119.194 468.46C119.399 468.694 119.646 468.876 119.933 469.005C120.226 469.134 120.557 469.198 120.926 469.198C121.383 469.198 121.808 469.11 122.2 468.935C122.599 468.753 122.941 468.48 123.229 468.117L124.459 469.453C124.26 469.74 123.987 470.016 123.642 470.279C123.302 470.543 122.892 470.76 122.411 470.93C121.931 471.094 121.383 471.176 120.768 471.176ZM135.252 461.49V463.283H129.715V461.49H135.252ZM131.086 459.144H133.617V468.135C133.617 468.41 133.652 468.621 133.723 468.768C133.799 468.914 133.91 469.017 134.057 469.075C134.203 469.128 134.388 469.154 134.61 469.154C134.769 469.154 134.909 469.148 135.032 469.137C135.161 469.119 135.27 469.102 135.357 469.084L135.366 470.947C135.149 471.018 134.915 471.073 134.663 471.114C134.411 471.155 134.133 471.176 133.828 471.176C133.271 471.176 132.785 471.085 132.369 470.903C131.959 470.716 131.643 470.417 131.42 470.007C131.197 469.597 131.086 469.058 131.086 468.39V459.144ZM139.163 457.5V471H136.632V457.5H139.163ZM138.803 465.911H138.108C138.114 465.249 138.202 464.64 138.372 464.083C138.542 463.521 138.785 463.034 139.102 462.624C139.418 462.208 139.796 461.886 140.235 461.657C140.681 461.429 141.173 461.314 141.712 461.314C142.181 461.314 142.605 461.382 142.986 461.517C143.373 461.646 143.704 461.856 143.979 462.149C144.261 462.437 144.478 462.814 144.63 463.283C144.782 463.752 144.858 464.32 144.858 464.988V471H142.31V464.971C142.31 464.549 142.248 464.218 142.125 463.978C142.008 463.731 141.835 463.559 141.606 463.459C141.384 463.354 141.108 463.301 140.78 463.301C140.417 463.301 140.106 463.368 139.849 463.503C139.597 463.638 139.395 463.825 139.242 464.065C139.09 464.3 138.979 464.575 138.908 464.892C138.838 465.208 138.803 465.548 138.803 465.911ZM149.455 461.49V471H146.915V461.49H149.455ZM146.757 459.012C146.757 458.643 146.886 458.338 147.144 458.098C147.401 457.857 147.747 457.737 148.181 457.737C148.608 457.737 148.951 457.857 149.209 458.098C149.473 458.338 149.604 458.643 149.604 459.012C149.604 459.381 149.473 459.686 149.209 459.926C148.951 460.166 148.608 460.286 148.181 460.286C147.747 460.286 147.401 460.166 147.144 459.926C146.886 459.686 146.757 459.381 146.757 459.012ZM156.688 468.372C156.688 468.19 156.636 468.026 156.53 467.88C156.425 467.733 156.229 467.599 155.941 467.476C155.66 467.347 155.253 467.229 154.72 467.124C154.239 467.019 153.791 466.887 153.375 466.729C152.965 466.564 152.607 466.368 152.303 466.14C152.004 465.911 151.77 465.642 151.6 465.331C151.43 465.015 151.345 464.654 151.345 464.25C151.345 463.852 151.43 463.477 151.6 463.125C151.775 462.773 152.024 462.463 152.347 462.193C152.675 461.918 153.073 461.704 153.542 461.552C154.017 461.394 154.55 461.314 155.142 461.314C155.968 461.314 156.677 461.446 157.269 461.71C157.866 461.974 158.323 462.337 158.64 462.8C158.962 463.257 159.123 463.778 159.123 464.364H156.592C156.592 464.118 156.539 463.898 156.434 463.705C156.334 463.506 156.176 463.351 155.959 463.239C155.748 463.122 155.473 463.063 155.133 463.063C154.852 463.063 154.608 463.113 154.403 463.213C154.198 463.307 154.04 463.436 153.929 463.6C153.823 463.758 153.771 463.934 153.771 464.127C153.771 464.273 153.8 464.405 153.858 464.522C153.923 464.634 154.025 464.736 154.166 464.83C154.307 464.924 154.488 465.012 154.711 465.094C154.939 465.17 155.221 465.24 155.555 465.305C156.24 465.445 156.853 465.63 157.392 465.858C157.931 466.081 158.358 466.386 158.675 466.772C158.991 467.153 159.149 467.654 159.149 468.275C159.149 468.697 159.056 469.084 158.868 469.436C158.681 469.787 158.411 470.095 158.06 470.358C157.708 470.616 157.286 470.818 156.794 470.965C156.308 471.105 155.76 471.176 155.15 471.176C154.266 471.176 153.516 471.018 152.9 470.701C152.291 470.385 151.828 469.983 151.512 469.497C151.201 469.005 151.046 468.501 151.046 467.985H153.445C153.457 468.331 153.545 468.609 153.709 468.82C153.879 469.031 154.093 469.184 154.351 469.277C154.614 469.371 154.898 469.418 155.203 469.418C155.531 469.418 155.804 469.374 156.021 469.286C156.237 469.192 156.401 469.069 156.513 468.917C156.63 468.759 156.688 468.577 156.688 468.372ZM165.275 457.5H167.807V468.82L167.552 471H165.275V457.5ZM173.827 466.148V466.333C173.827 467.042 173.751 467.692 173.599 468.284C173.452 468.876 173.224 469.389 172.913 469.822C172.603 470.25 172.216 470.584 171.753 470.824C171.296 471.059 170.757 471.176 170.136 471.176C169.556 471.176 169.052 471.059 168.624 470.824C168.202 470.59 167.848 470.259 167.561 469.831C167.273 469.403 167.042 468.902 166.866 468.328C166.69 467.754 166.559 467.127 166.471 466.447V466.043C166.559 465.363 166.69 464.736 166.866 464.162C167.042 463.588 167.273 463.087 167.561 462.659C167.848 462.231 168.202 461.9 168.624 461.666C169.046 461.432 169.544 461.314 170.118 461.314C170.745 461.314 171.29 461.435 171.753 461.675C172.222 461.909 172.608 462.243 172.913 462.677C173.224 463.104 173.452 463.614 173.599 464.206C173.751 464.792 173.827 465.439 173.827 466.148ZM171.296 466.333V466.148C171.296 465.762 171.267 465.398 171.208 465.059C171.155 464.713 171.062 464.411 170.927 464.153C170.792 463.89 170.607 463.682 170.373 463.529C170.145 463.377 169.849 463.301 169.485 463.301C169.14 463.301 168.847 463.359 168.606 463.477C168.366 463.594 168.167 463.758 168.009 463.969C167.856 464.18 167.742 464.432 167.666 464.725C167.59 465.012 167.543 465.328 167.525 465.674V466.825C167.543 467.288 167.619 467.698 167.754 468.056C167.895 468.407 168.105 468.686 168.387 468.891C168.674 469.09 169.046 469.189 169.503 469.189C169.86 469.189 170.156 469.119 170.391 468.979C170.625 468.838 170.807 468.639 170.936 468.381C171.07 468.123 171.164 467.821 171.217 467.476C171.27 467.124 171.296 466.743 171.296 466.333ZM174.996 466.342V466.157C174.996 465.46 175.096 464.818 175.295 464.232C175.494 463.641 175.784 463.128 176.165 462.694C176.546 462.261 177.015 461.924 177.571 461.684C178.128 461.438 178.767 461.314 179.487 461.314C180.208 461.314 180.85 461.438 181.412 461.684C181.975 461.924 182.446 462.261 182.827 462.694C183.214 463.128 183.507 463.641 183.706 464.232C183.905 464.818 184.005 465.46 184.005 466.157V466.342C184.005 467.033 183.905 467.675 183.706 468.267C183.507 468.853 183.214 469.365 182.827 469.805C182.446 470.238 181.978 470.575 181.421 470.815C180.864 471.056 180.226 471.176 179.505 471.176C178.784 471.176 178.143 471.056 177.58 470.815C177.023 470.575 176.552 470.238 176.165 469.805C175.784 469.365 175.494 468.853 175.295 468.267C175.096 467.675 174.996 467.033 174.996 466.342ZM177.527 466.157V466.342C177.527 466.74 177.562 467.112 177.633 467.458C177.703 467.804 177.814 468.108 177.967 468.372C178.125 468.63 178.33 468.832 178.582 468.979C178.834 469.125 179.142 469.198 179.505 469.198C179.856 469.198 180.158 469.125 180.41 468.979C180.662 468.832 180.864 468.63 181.017 468.372C181.169 468.108 181.28 467.804 181.351 467.458C181.427 467.112 181.465 466.74 181.465 466.342V466.157C181.465 465.771 181.427 465.407 181.351 465.067C181.28 464.722 181.166 464.417 181.008 464.153C180.855 463.884 180.653 463.673 180.401 463.521C180.149 463.368 179.845 463.292 179.487 463.292C179.13 463.292 178.825 463.368 178.573 463.521C178.327 463.673 178.125 463.884 177.967 464.153C177.814 464.417 177.703 464.722 177.633 465.067C177.562 465.407 177.527 465.771 177.527 466.157ZM185.156 466.342V466.157C185.156 465.46 185.256 464.818 185.455 464.232C185.654 463.641 185.944 463.128 186.325 462.694C186.706 462.261 187.175 461.924 187.731 461.684C188.288 461.438 188.927 461.314 189.647 461.314C190.368 461.314 191.01 461.438 191.572 461.684C192.135 461.924 192.606 462.261 192.987 462.694C193.374 463.128 193.667 463.641 193.866 464.232C194.065 464.818 194.165 465.46 194.165 466.157V466.342C194.165 467.033 194.065 467.675 193.866 468.267C193.667 468.853 193.374 469.365 192.987 469.805C192.606 470.238 192.138 470.575 191.581 470.815C191.024 471.056 190.386 471.176 189.665 471.176C188.944 471.176 188.303 471.056 187.74 470.815C187.184 470.575 186.712 470.238 186.325 469.805C185.944 469.365 185.654 468.853 185.455 468.267C185.256 467.675 185.156 467.033 185.156 466.342ZM187.688 466.157V466.342C187.688 466.74 187.723 467.112 187.793 467.458C187.863 467.804 187.975 468.108 188.127 468.372C188.285 468.63 188.49 468.832 188.742 468.979C188.994 469.125 189.302 469.198 189.665 469.198C190.017 469.198 190.318 469.125 190.57 468.979C190.822 468.832 191.024 468.63 191.177 468.372C191.329 468.108 191.44 467.804 191.511 467.458C191.587 467.112 191.625 466.74 191.625 466.342V466.157C191.625 465.771 191.587 465.407 191.511 465.067C191.44 464.722 191.326 464.417 191.168 464.153C191.016 463.884 190.813 463.673 190.562 463.521C190.31 463.368 190.005 463.292 189.647 463.292C189.29 463.292 188.985 463.368 188.733 463.521C188.487 463.673 188.285 463.884 188.127 464.153C187.975 464.417 187.863 464.722 187.793 465.067C187.723 465.407 187.688 465.771 187.688 466.157ZM198.252 457.491V471H195.721V457.491H198.252ZM204.246 461.49L200.115 466.201L197.9 468.442L196.978 466.614L198.735 464.382L201.205 461.49H204.246ZM201.618 471L198.806 466.605L200.555 465.076L204.536 471H201.618ZM208.008 461.49V471H205.468V461.49H208.008ZM205.31 459.012C205.31 458.643 205.438 458.338 205.696 458.098C205.954 457.857 206.3 457.737 206.733 457.737C207.161 457.737 207.504 457.857 207.762 458.098C208.025 458.338 208.157 458.643 208.157 459.012C208.157 459.381 208.025 459.686 207.762 459.926C207.504 460.166 207.161 460.286 206.733 460.286C206.3 460.286 205.954 460.166 205.696 459.926C205.438 459.686 205.31 459.381 205.31 459.012ZM212.578 463.521V471H210.047V461.49H212.42L212.578 463.521ZM212.209 465.911H211.523C211.523 465.208 211.614 464.575 211.796 464.013C211.978 463.444 212.232 462.961 212.561 462.562C212.889 462.158 213.278 461.851 213.729 461.64C214.187 461.423 214.696 461.314 215.259 461.314C215.704 461.314 216.111 461.379 216.48 461.508C216.85 461.637 217.166 461.842 217.43 462.123C217.699 462.404 217.904 462.776 218.045 463.239C218.191 463.702 218.265 464.268 218.265 464.936V471H215.716V464.927C215.716 464.505 215.657 464.177 215.54 463.942C215.423 463.708 215.25 463.544 215.021 463.45C214.799 463.351 214.523 463.301 214.195 463.301C213.855 463.301 213.56 463.368 213.308 463.503C213.062 463.638 212.856 463.825 212.692 464.065C212.534 464.3 212.414 464.575 212.332 464.892C212.25 465.208 212.209 465.548 212.209 465.911ZM226.21 461.49H228.504V470.684C228.504 471.551 228.311 472.286 227.924 472.89C227.543 473.499 227.01 473.959 226.324 474.27C225.639 474.586 224.842 474.744 223.934 474.744C223.535 474.744 223.113 474.691 222.668 474.586C222.229 474.48 221.807 474.316 221.402 474.094C221.004 473.871 220.67 473.59 220.4 473.25L221.517 471.756C221.81 472.096 222.149 472.359 222.536 472.547C222.923 472.74 223.351 472.837 223.819 472.837C224.276 472.837 224.663 472.752 224.979 472.582C225.296 472.418 225.539 472.175 225.709 471.853C225.879 471.536 225.964 471.152 225.964 470.701V463.688L226.21 461.49ZM219.812 466.359V466.175C219.812 465.448 219.899 464.789 220.075 464.197C220.257 463.6 220.512 463.087 220.84 462.659C221.174 462.231 221.578 461.9 222.053 461.666C222.527 461.432 223.063 461.314 223.661 461.314C224.294 461.314 224.824 461.432 225.252 461.666C225.68 461.9 226.031 462.234 226.307 462.668C226.582 463.096 226.796 463.603 226.948 464.188C227.106 464.769 227.229 465.404 227.317 466.096V466.5C227.229 467.162 227.098 467.777 226.922 468.346C226.746 468.914 226.515 469.412 226.228 469.84C225.94 470.262 225.583 470.59 225.155 470.824C224.733 471.059 224.229 471.176 223.644 471.176C223.058 471.176 222.527 471.056 222.053 470.815C221.584 470.575 221.183 470.238 220.849 469.805C220.515 469.371 220.257 468.861 220.075 468.275C219.899 467.689 219.812 467.051 219.812 466.359ZM222.343 466.175V466.359C222.343 466.752 222.381 467.118 222.457 467.458C222.533 467.798 222.65 468.1 222.809 468.363C222.973 468.621 223.175 468.823 223.415 468.97C223.661 469.11 223.951 469.181 224.285 469.181C224.748 469.181 225.126 469.084 225.419 468.891C225.712 468.691 225.932 468.419 226.078 468.073C226.225 467.728 226.31 467.329 226.333 466.878V465.727C226.321 465.357 226.271 465.026 226.184 464.733C226.096 464.435 225.973 464.18 225.814 463.969C225.656 463.758 225.451 463.594 225.199 463.477C224.947 463.359 224.648 463.301 224.303 463.301C223.969 463.301 223.679 463.377 223.433 463.529C223.192 463.676 222.99 463.878 222.826 464.136C222.668 464.394 222.548 464.698 222.466 465.05C222.384 465.396 222.343 465.771 222.343 466.175Z" fill="white"/>
</g>
<defs>
<filter id="filter0_d_31_987" x="0" y="0" width="652" height="533" filterUnits="userSpaceOnUse" color-interpolation-filters="sRGB">
<feFlood flood-opacity="0" result="BackgroundImageFix"/>
<feColorMatrix in="SourceAlpha" type="matrix" values="0 0 0 0 0 0 0 0 0 0 0 0 0 0 0 0 0 0 127 0" result="hardAlpha"/>
<feOffset dy="1"/>
<feGaussianBlur stdDeviation="2"/>
<feComposite in2="hardAlpha" operator="out"/>
<feColorMatrix type="matrix" values="0 0 0 0 0 0 0 0 0 0 0 0 0 0 0 0 0 0 0.3 0"/>
<feBlend mode="normal" in2="BackgroundImageFix" result="effect1_dropShadow_31_987"/>
<feBlend mode="normal" in="SourceGraphic" in2="effect1_dropShadow_31_987" result="shape"/>
</filter>
<linearGradient id="paint0_linear_31_987" x1="78.1429" y1="465" x2="223" y2="465" gradientUnits="userSpaceOnUse">
<stop stop-color="#073590"/>
<stop offset="1" stop-color="#3D7BF5"/>
</linearGradient>
</defs>
</svg>
