<svg width="375" height="556" viewBox="0 0 375 556" fill="none" xmlns="http://www.w3.org/2000/svg">
<path d="M187.5 181C229.114 181 269.545 194.843 302.425 220.35C335.305 245.856 358.766 281.576 369.113 321.883C379.459 362.19 376.102 404.794 359.571 442.983C343.041 481.172 314.275 512.777 277.806 532.82L234.94 454.822C254.098 444.293 269.21 427.69 277.894 407.628C286.578 387.566 288.341 365.185 282.906 344.011C277.471 322.837 265.146 304.072 247.873 290.673C230.6 277.274 209.361 270.001 187.5 270.001V181Z" fill="#BEF3C0"/>
<path d="M277.822 532.811C245.324 550.675 208.259 558.501 171.313 555.3C134.368 552.099 99.2013 538.013 70.2608 514.826C41.3203 491.638 19.9057 460.389 8.72493 425.031C-2.45579 389.672 -2.90046 351.793 7.44716 316.181L92.9135 341.016C87.4776 359.723 87.7112 379.622 93.5848 398.197C99.4583 416.772 110.708 433.188 125.911 445.369C141.114 457.55 159.588 464.949 178.997 466.631C198.405 468.313 217.877 464.201 234.948 454.817L277.822 532.811Z" fill="#AC94F1"/>
<path d="M7.33821 316.558C17.2778 282.082 36.9003 251.183 63.8768 227.526L122.557 294.443C108.386 306.87 98.0778 323.103 92.8563 341.213L7.33821 316.558Z" fill="#FFF0CA"/>
<path d="M62.9118 228.379C88.673 205.473 120.25 190.113 154.173 183.986L169.992 271.57C152.172 274.788 135.584 282.858 122.051 294.891L62.9118 228.379Z" fill="#F9CF64"/>
<path d="M153.259 184.153C165.951 181.796 178.853 180.755 191.759 181.048L189.737 270.027C182.957 269.873 176.18 270.419 169.512 271.658L153.259 184.153Z" fill="#F38FBF"/>
<g filter="url(#filter0_d_1_789)">
<path d="M128.875 12.375V30.375H125.488V12.375H128.875ZM138.508 27.5156V21.8672C138.508 21.4609 138.441 21.1133 138.309 20.8242C138.176 20.5273 137.969 20.2969 137.688 20.1328C137.414 19.9688 137.059 19.8867 136.621 19.8867C136.246 19.8867 135.922 19.9531 135.648 20.0859C135.375 20.2109 135.164 20.3945 135.016 20.6367C134.867 20.8711 134.793 21.1484 134.793 21.4688H131.418C131.418 20.9297 131.543 20.418 131.793 19.9336C132.043 19.4492 132.406 19.0234 132.883 18.6562C133.359 18.2812 133.926 17.9883 134.582 17.7773C135.246 17.5664 135.988 17.4609 136.809 17.4609C137.793 17.4609 138.668 17.625 139.434 17.9531C140.199 18.2812 140.801 18.7734 141.238 19.4297C141.684 20.0859 141.906 20.9062 141.906 21.8906V27.3164C141.906 28.0117 141.949 28.582 142.035 29.0273C142.121 29.4648 142.246 29.8477 142.41 30.1758V30.375H139C138.836 30.0312 138.711 29.6016 138.625 29.0859C138.547 28.5625 138.508 28.0391 138.508 27.5156ZM138.953 22.6523L138.977 24.5625H137.09C136.645 24.5625 136.258 24.6133 135.93 24.7148C135.602 24.8164 135.332 24.9609 135.121 25.1484C134.91 25.3281 134.754 25.5391 134.652 25.7812C134.559 26.0234 134.512 26.2891 134.512 26.5781C134.512 26.8672 134.578 27.1289 134.711 27.3633C134.844 27.5898 135.035 27.7695 135.285 27.9023C135.535 28.0273 135.828 28.0898 136.164 28.0898C136.672 28.0898 137.113 27.9883 137.488 27.7852C137.863 27.582 138.152 27.332 138.355 27.0352C138.566 26.7383 138.676 26.457 138.684 26.1914L139.574 27.6211C139.449 27.9414 139.277 28.2734 139.059 28.6172C138.848 28.9609 138.578 29.2852 138.25 29.5898C137.922 29.8867 137.527 30.1328 137.066 30.3281C136.605 30.5156 136.059 30.6094 135.426 30.6094C134.621 30.6094 133.891 30.4492 133.234 30.1289C132.586 29.8008 132.07 29.3516 131.688 28.7812C131.312 28.2031 131.125 27.5469 131.125 26.8125C131.125 26.1484 131.25 25.5586 131.5 25.043C131.75 24.5273 132.117 24.0938 132.602 23.7422C133.094 23.3828 133.707 23.1133 134.441 22.9336C135.176 22.7461 136.027 22.6523 136.996 22.6523H138.953ZM147.883 20.4609V30.375H144.508V17.6953H147.684L147.883 20.4609ZM151.703 17.6133L151.645 20.7422C151.48 20.7188 151.281 20.6992 151.047 20.6836C150.82 20.6602 150.613 20.6484 150.426 20.6484C149.949 20.6484 149.535 20.7109 149.184 20.8359C148.84 20.9531 148.551 21.1289 148.316 21.3633C148.09 21.5977 147.918 21.8828 147.801 22.2188C147.691 22.5547 147.629 22.9375 147.613 23.3672L146.934 23.1562C146.934 22.3359 147.016 21.582 147.18 20.8945C147.344 20.1992 147.582 19.5938 147.895 19.0781C148.215 18.5625 148.605 18.1641 149.066 17.8828C149.527 17.6016 150.055 17.4609 150.648 17.4609C150.836 17.4609 151.027 17.4766 151.223 17.5078C151.418 17.5312 151.578 17.5664 151.703 17.6133ZM161.09 17.6953H164.148V29.9531C164.148 31.1094 163.891 32.0898 163.375 32.8945C162.867 33.707 162.156 34.3203 161.242 34.7344C160.328 35.1562 159.266 35.3672 158.055 35.3672C157.523 35.3672 156.961 35.2969 156.367 35.1562C155.781 35.0156 155.219 34.7969 154.68 34.5C154.148 34.2031 153.703 33.8281 153.344 33.375L154.832 31.3828C155.223 31.8359 155.676 32.1875 156.191 32.4375C156.707 32.6953 157.277 32.8242 157.902 32.8242C158.512 32.8242 159.027 32.7109 159.449 32.4844C159.871 32.2656 160.195 31.9414 160.422 31.5117C160.648 31.0898 160.762 30.5781 160.762 29.9766V20.625L161.09 17.6953ZM152.559 24.1875V23.9414C152.559 22.9727 152.676 22.0938 152.91 21.3047C153.152 20.5078 153.492 19.8242 153.93 19.2539C154.375 18.6836 154.914 18.2422 155.547 17.9297C156.18 17.6172 156.895 17.4609 157.691 17.4609C158.535 17.4609 159.242 17.6172 159.812 17.9297C160.383 18.2422 160.852 18.6875 161.219 19.2656C161.586 19.8359 161.871 20.5117 162.074 21.293C162.285 22.0664 162.449 22.9141 162.566 23.8359V24.375C162.449 25.2578 162.273 26.0781 162.039 26.8359C161.805 27.5938 161.496 28.2578 161.113 28.8281C160.73 29.3906 160.254 29.8281 159.684 30.1406C159.121 30.4531 158.449 30.6094 157.668 30.6094C156.887 30.6094 156.18 30.4492 155.547 30.1289C154.922 29.8086 154.387 29.3594 153.941 28.7812C153.496 28.2031 153.152 27.5234 152.91 26.7422C152.676 25.9609 152.559 25.1094 152.559 24.1875ZM155.934 23.9414V24.1875C155.934 24.7109 155.984 25.1992 156.086 25.6523C156.188 26.1055 156.344 26.5078 156.555 26.8594C156.773 27.2031 157.043 27.4727 157.363 27.668C157.691 27.8555 158.078 27.9492 158.523 27.9492C159.141 27.9492 159.645 27.8203 160.035 27.5625C160.426 27.2969 160.719 26.9336 160.914 26.4727C161.109 26.0117 161.223 25.4805 161.254 24.8789V23.3438C161.238 22.8516 161.172 22.4102 161.055 22.0195C160.938 21.6211 160.773 21.2812 160.562 21C160.352 20.7188 160.078 20.5 159.742 20.3438C159.406 20.1875 159.008 20.1094 158.547 20.1094C158.102 20.1094 157.715 20.2109 157.387 20.4141C157.066 20.6094 156.797 20.8789 156.578 21.2227C156.367 21.5664 156.207 21.9727 156.098 22.4414C155.988 22.9023 155.934 23.4023 155.934 23.9414ZM172.609 30.6094C171.625 30.6094 170.742 30.4531 169.961 30.1406C169.18 29.8203 168.516 29.3789 167.969 28.8164C167.43 28.2539 167.016 27.6016 166.727 26.8594C166.438 26.1094 166.293 25.3125 166.293 24.4688V24C166.293 23.0391 166.43 22.1602 166.703 21.3633C166.977 20.5664 167.367 19.875 167.875 19.2891C168.391 18.7031 169.016 18.2539 169.75 17.9414C170.484 17.6211 171.312 17.4609 172.234 17.4609C173.133 17.4609 173.93 17.6094 174.625 17.9062C175.32 18.2031 175.902 18.625 176.371 19.1719C176.848 19.7188 177.207 20.375 177.449 21.1406C177.691 21.8984 177.812 22.7422 177.812 23.6719V25.0781H167.734V22.8281H174.496V22.5703C174.496 22.1016 174.41 21.6836 174.238 21.3164C174.074 20.9414 173.824 20.6445 173.488 20.4258C173.152 20.207 172.723 20.0977 172.199 20.0977C171.754 20.0977 171.371 20.1953 171.051 20.3906C170.73 20.5859 170.469 20.8594 170.266 21.2109C170.07 21.5625 169.922 21.9766 169.82 22.4531C169.727 22.9219 169.68 23.4375 169.68 24V24.4688C169.68 24.9766 169.75 25.4453 169.891 25.875C170.039 26.3047 170.246 26.6758 170.512 26.9883C170.785 27.3008 171.113 27.543 171.496 27.7148C171.887 27.8867 172.328 27.9727 172.82 27.9727C173.43 27.9727 173.996 27.8555 174.52 27.6211C175.051 27.3789 175.508 27.0156 175.891 26.5312L177.531 28.3125C177.266 28.6953 176.902 29.0625 176.441 29.4141C175.988 29.7656 175.441 30.0547 174.801 30.2812C174.16 30.5 173.43 30.6094 172.609 30.6094ZM183.109 20.4609V30.375H179.734V17.6953H182.91L183.109 20.4609ZM186.93 17.6133L186.871 20.7422C186.707 20.7188 186.508 20.6992 186.273 20.6836C186.047 20.6602 185.84 20.6484 185.652 20.6484C185.176 20.6484 184.762 20.7109 184.41 20.8359C184.066 20.9531 183.777 21.1289 183.543 21.3633C183.316 21.5977 183.145 21.8828 183.027 22.2188C182.918 22.5547 182.855 22.9375 182.84 23.3672L182.16 23.1562C182.16 22.3359 182.242 21.582 182.406 20.8945C182.57 20.1992 182.809 19.5938 183.121 19.0781C183.441 18.5625 183.832 18.1641 184.293 17.8828C184.754 17.6016 185.281 17.4609 185.875 17.4609C186.062 17.4609 186.254 17.4766 186.449 17.5078C186.645 17.5312 186.805 17.5664 186.93 17.6133ZM195.32 17.6953V20.0859H187.938V17.6953H195.32ZM189.766 14.5664H193.141V26.5547C193.141 26.9219 193.188 27.2031 193.281 27.3984C193.383 27.5938 193.531 27.7305 193.727 27.8086C193.922 27.8789 194.168 27.9141 194.465 27.9141C194.676 27.9141 194.863 27.9062 195.027 27.8906C195.199 27.8672 195.344 27.8438 195.461 27.8203L195.473 30.3047C195.184 30.3984 194.871 30.4727 194.535 30.5273C194.199 30.582 193.828 30.6094 193.422 30.6094C192.68 30.6094 192.031 30.4883 191.477 30.2461C190.93 29.9961 190.508 29.5977 190.211 29.0508C189.914 28.5039 189.766 27.7852 189.766 26.8945V14.5664ZM200.535 12.375V30.375H197.16V12.375H200.535ZM200.055 23.5898H199.129C199.137 22.707 199.254 21.8945 199.48 21.1523C199.707 20.4023 200.031 19.7539 200.453 19.207C200.875 18.6523 201.379 18.2227 201.965 17.918C202.559 17.6133 203.215 17.4609 203.934 17.4609C204.559 17.4609 205.125 17.5508 205.633 17.7305C206.148 17.9023 206.59 18.1836 206.957 18.5742C207.332 18.957 207.621 19.4609 207.824 20.0859C208.027 20.7109 208.129 21.4688 208.129 22.3594V30.375H204.73V22.3359C204.73 21.7734 204.648 21.332 204.484 21.0117C204.328 20.6836 204.098 20.4531 203.793 20.3203C203.496 20.1797 203.129 20.1094 202.691 20.1094C202.207 20.1094 201.793 20.1992 201.449 20.3789C201.113 20.5586 200.844 20.8086 200.641 21.1289C200.438 21.4414 200.289 21.8086 200.195 22.2305C200.102 22.6523 200.055 23.1055 200.055 23.5898ZM217.539 27.5156V21.8672C217.539 21.4609 217.473 21.1133 217.34 20.8242C217.207 20.5273 217 20.2969 216.719 20.1328C216.445 19.9688 216.09 19.8867 215.652 19.8867C215.277 19.8867 214.953 19.9531 214.68 20.0859C214.406 20.2109 214.195 20.3945 214.047 20.6367C213.898 20.8711 213.824 21.1484 213.824 21.4688H210.449C210.449 20.9297 210.574 20.418 210.824 19.9336C211.074 19.4492 211.438 19.0234 211.914 18.6562C212.391 18.2812 212.957 17.9883 213.613 17.7773C214.277 17.5664 215.02 17.4609 215.84 17.4609C216.824 17.4609 217.699 17.625 218.465 17.9531C219.23 18.2812 219.832 18.7734 220.27 19.4297C220.715 20.0859 220.938 20.9062 220.938 21.8906V27.3164C220.938 28.0117 220.98 28.582 221.066 29.0273C221.152 29.4648 221.277 29.8477 221.441 30.1758V30.375H218.031C217.867 30.0312 217.742 29.6016 217.656 29.0859C217.578 28.5625 217.539 28.0391 217.539 27.5156ZM217.984 22.6523L218.008 24.5625H216.121C215.676 24.5625 215.289 24.6133 214.961 24.7148C214.633 24.8164 214.363 24.9609 214.152 25.1484C213.941 25.3281 213.785 25.5391 213.684 25.7812C213.59 26.0234 213.543 26.2891 213.543 26.5781C213.543 26.8672 213.609 27.1289 213.742 27.3633C213.875 27.5898 214.066 27.7695 214.316 27.9023C214.566 28.0273 214.859 28.0898 215.195 28.0898C215.703 28.0898 216.145 27.9883 216.52 27.7852C216.895 27.582 217.184 27.332 217.387 27.0352C217.598 26.7383 217.707 26.457 217.715 26.1914L218.605 27.6211C218.48 27.9414 218.309 28.2734 218.09 28.6172C217.879 28.9609 217.609 29.2852 217.281 29.5898C216.953 29.8867 216.559 30.1328 216.098 30.3281C215.637 30.5156 215.09 30.6094 214.457 30.6094C213.652 30.6094 212.922 30.4492 212.266 30.1289C211.617 29.8008 211.102 29.3516 210.719 28.7812C210.344 28.2031 210.156 27.5469 210.156 26.8125C210.156 26.1484 210.281 25.5586 210.531 25.043C210.781 24.5273 211.148 24.0938 211.633 23.7422C212.125 23.3828 212.738 23.1133 213.473 22.9336C214.207 22.7461 215.059 22.6523 216.027 22.6523H217.984ZM226.844 20.4023V30.375H223.469V17.6953H226.633L226.844 20.4023ZM226.352 23.5898H225.438C225.438 22.6523 225.559 21.8086 225.801 21.0586C226.043 20.3008 226.383 19.6562 226.82 19.125C227.258 18.5859 227.777 18.1758 228.379 17.8945C228.988 17.6055 229.668 17.4609 230.418 17.4609C231.012 17.4609 231.555 17.5469 232.047 17.7188C232.539 17.8906 232.961 18.1641 233.312 18.5391C233.672 18.9141 233.945 19.4102 234.133 20.0273C234.328 20.6445 234.426 21.3984 234.426 22.2891V30.375H231.027V22.2773C231.027 21.7148 230.949 21.2773 230.793 20.9648C230.637 20.6523 230.406 20.4336 230.102 20.3086C229.805 20.1758 229.438 20.1094 229 20.1094C228.547 20.1094 228.152 20.1992 227.816 20.3789C227.488 20.5586 227.215 20.8086 226.996 21.1289C226.785 21.4414 226.625 21.8086 226.516 22.2305C226.406 22.6523 226.352 23.1055 226.352 23.5898Z" fill="white"/>
<path d="M245.348 15.8843C245.169 16.0715 244.966 16.2261 244.738 16.3481C244.51 16.4621 244.27 16.5353 244.018 16.5679C243.765 16.5923 243.525 16.5516 243.297 16.4458C243.078 16.34 242.886 16.1895 242.724 15.9941C242.374 15.5872 242.199 15.1763 242.199 14.7612C242.199 14.3462 242.264 14.0369 242.394 13.8335C242.532 13.6219 242.703 13.451 242.907 13.3208C243.297 13.0685 243.664 12.9424 244.005 12.9424C244.355 12.9424 244.624 12.9668 244.811 13.0156C245.006 13.0645 245.185 13.1458 245.348 13.2598C245.747 13.5283 245.946 13.8579 245.946 14.2485C245.946 14.631 245.889 14.9525 245.775 15.2129C245.67 15.4652 245.527 15.689 245.348 15.8843ZM242.846 29.0923C243.057 29.0923 243.163 29.2306 243.163 29.5073C243.163 29.8735 242.996 30.252 242.663 30.6426C242.174 31.2122 241.519 31.4971 240.697 31.4971C239.753 31.4971 239.106 31.1146 238.756 30.3496C238.626 30.0811 238.561 29.7555 238.561 29.373C238.561 28.9906 238.626 28.5674 238.756 28.1035C238.895 27.6315 239.062 27.1392 239.257 26.6265C239.46 26.1056 239.68 25.5807 239.916 25.0518L240.563 23.5137C241.035 22.3662 241.271 21.6094 241.271 21.2432C241.271 20.877 241.23 20.6369 241.149 20.5229C241.076 20.4009 240.994 20.3073 240.905 20.2422L240.661 20.0713C240.579 20.0143 240.539 19.9167 240.539 19.7783C240.539 19.6318 240.591 19.4935 240.697 19.3633C240.811 19.2331 240.958 19.1191 241.137 19.0215C241.503 18.8343 241.93 18.7407 242.418 18.7407C243.615 18.7407 244.213 19.054 244.213 19.6807C244.213 20.4131 244.022 21.2513 243.639 22.1953C243.257 23.1312 242.931 23.888 242.663 24.4658L241.93 26.1504C241.393 27.3874 241.125 28.2785 241.125 28.8237C241.125 29.1818 241.304 29.3608 241.662 29.3608C242.012 29.3608 242.276 29.3161 242.455 29.2266C242.634 29.137 242.764 29.0923 242.846 29.0923Z" fill="white"/>
</g>
<defs>
<filter id="filter0_d_1_789" x="121.488" y="12.375" width="128.458" height="30.9922" filterUnits="userSpaceOnUse" color-interpolation-filters="sRGB">
<feFlood flood-opacity="0" result="BackgroundImageFix"/>
<feColorMatrix in="SourceAlpha" type="matrix" values="0 0 0 0 0 0 0 0 0 0 0 0 0 0 0 0 0 0 127 0" result="hardAlpha"/>
<feOffset dy="4"/>
<feGaussianBlur stdDeviation="2"/>
<feComposite in2="hardAlpha" operator="out"/>
<feColorMatrix type="matrix" values="0 0 0 0 0 0 0 0 0 0 0 0 0 0 0 0 0 0 0.25 0"/>
<feBlend mode="normal" in2="BackgroundImageFix" result="effect1_dropShadow_1_789"/>
<feBlend mode="normal" in="SourceGraphic" in2="effect1_dropShadow_1_789" result="shape"/>
</filter>
</defs>
</svg>
